<svg width="70" height="70" viewBox="0 0 70 70" fill="none" xmlns="http://www.w3.org/2000/svg">
<g id="discount-shape-svgrepo-com 1">
<path id="Vector" opacity="0.4" d="M11.64 42.7578L7.20671 38.3245C5.39838 36.5162 5.39838 33.5412 7.20671 31.7328L11.64 27.2995C12.3984 26.5412 13.0109 25.0536 13.0109 24.0036V17.7329C13.0109 15.1663 15.1109 13.0661 17.6775 13.0661H23.9484C24.9984 13.0661 26.4859 12.4537 27.2442 11.6954L31.6774 7.26201C33.4857 5.45368 36.461 5.45368 38.2693 7.26201L42.7027 11.6954C43.461 12.4537 44.9482 13.0661 45.9982 13.0661H52.2693C54.836 13.0661 56.9357 15.1663 56.9357 17.7329V24.0036C56.9357 25.0536 57.5482 26.5412 58.3065 27.2995L62.7402 31.7328C64.5485 33.5412 64.5485 36.5162 62.7402 38.3245L58.3065 42.7578C57.5482 43.5162 56.9357 45.0037 56.9357 46.0537V52.3245C56.9357 54.8912 54.836 56.9912 52.2693 56.9912H45.9982C44.9482 56.9912 43.461 57.6037 42.7027 58.362L38.2693 62.7953C36.461 64.6037 33.4857 64.6037 31.6774 62.7953L27.2442 58.362C26.4859 57.6037 24.9984 56.9912 23.9484 56.9912H17.6775C15.1109 56.9912 13.0109 54.8912 13.0109 52.3245V46.0537C13.0109 44.9745 12.3984 43.487 11.64 42.7578Z" fill="#EF4444"/>
<path id="Vector_2" d="M43.7506 46.6668C42.1173 46.6668 40.8048 45.3543 40.8048 43.7502C40.8048 42.146 42.1173 40.8335 43.7215 40.8335C45.3256 40.8335 46.6381 42.146 46.6381 43.7502C46.6381 45.3543 45.3548 46.6668 43.7506 46.6668Z" fill="#EF4444"/>
<path id="Vector_3" d="M26.2792 29.1668C24.6459 29.1668 23.3334 27.8543 23.3334 26.2502C23.3334 24.646 24.6459 23.3335 26.25 23.3335C27.8542 23.3335 29.1667 24.646 29.1667 26.2502C29.1667 27.8543 27.8834 29.1668 26.2792 29.1668Z" fill="#EF4444"/>
<path id="Vector_4" d="M26.2484 45.9377C25.6943 45.9377 25.1401 45.7335 24.7026 45.296C23.8568 44.4502 23.8568 43.0499 24.7026 42.2041L42.2028 24.7042C43.0486 23.8584 44.4486 23.8584 45.2944 24.7042C46.1403 25.55 46.1403 26.9502 45.2944 27.796L27.7943 45.296C27.3568 45.7335 26.8026 45.9377 26.2484 45.9377Z" fill="#EF4444"/>
</g>
</svg>
