<svg width="408" height="311" viewBox="0 0 408 311" fill="none" xmlns="http://www.w3.org/2000/svg">
<g clip-path="url(#clip0_2015_1617)">
<path d="M59.8739 265.074C85.6245 252.613 138.856 231.709 206.049 231.709C273.241 231.709 326.473 252.613 352.224 265.074C377.293 277.205 397.454 291.508 406.951 303.178C410.413 298.78 405.332 220.529 391.271 189.496C370.657 143.891 336.086 104.977 291.888 77.6296C247.689 50.2823 195.828 35.717 142.802 35.7583C123.941 35.7102 105.257 39.1546 87.8314 45.8922C70.4059 52.6298 54.5852 62.5268 41.2848 75.0102C40.7199 75.5375 40.1603 76.0685 39.606 76.603C9.84722 105.299 -4.04801 145.222 1.02519 184.879C4.63709 213.113 13.5387 272.167 26.1163 284.689C36.7668 277.288 48.0582 270.727 59.8739 265.074Z" fill="#F2F2F2"/>
<path d="M252.763 72.5417C274.018 72.5417 291.248 56.458 291.248 36.6178C291.248 16.7775 274.018 0.693848 252.763 0.693848C231.509 0.693848 214.279 16.7775 214.279 36.6178C214.279 56.458 231.509 72.5417 252.763 72.5417Z" fill="#B05EFA"/>
<path d="M209.041 251.075C232.669 251.075 251.823 247.345 251.823 242.744C251.823 238.143 232.669 234.413 209.041 234.413C185.413 234.413 166.26 238.143 166.26 242.744C166.26 247.345 185.413 251.075 209.041 251.075Z" fill="#F2F2F2"/>
<path d="M252.502 54.5152C213.284 54.5119 182.565 47.8754 182.565 39.4063C182.566 34.3288 193.452 29.7993 212.431 26.9798C212.499 26.9692 212.568 26.9712 212.635 26.9855C212.701 26.9999 212.765 27.0264 212.82 27.0636C212.876 27.1007 212.924 27.1477 212.96 27.202C212.996 27.2562 213.021 27.3166 213.032 27.3797C213.043 27.4428 213.041 27.5074 213.026 27.5697C213.011 27.6321 212.982 27.691 212.942 27.7431C212.903 27.7952 212.852 27.8395 212.794 27.8734C212.736 27.9073 212.671 27.9302 212.604 27.9408L212.602 27.9411L212.595 27.9421C194.716 30.5983 183.61 34.9911 183.609 39.4063C183.609 47.0649 215.157 53.5377 252.502 53.5408C289.846 53.544 321.397 47.0765 321.397 39.4179C321.398 34.9842 310.221 30.5787 292.228 27.9212C292.16 27.9116 292.095 27.8897 292.036 27.8565C291.978 27.8234 291.926 27.7798 291.886 27.7283C291.845 27.6767 291.816 27.6181 291.799 27.5559C291.783 27.4937 291.78 27.429 291.79 27.3657C291.8 27.3024 291.824 27.2416 291.86 27.1868C291.895 27.132 291.942 27.0843 291.997 27.0464C292.053 27.0085 292.116 26.9812 292.182 26.966C292.249 26.9508 292.318 26.9481 292.386 26.9579L292.388 26.9581L292.391 26.9587C311.489 29.7795 322.442 34.3208 322.441 39.418C322.44 47.8871 291.719 54.5185 252.502 54.5152Z" fill="#3F3D56"/>
<path d="M255.297 48.712C221.503 67.2868 191.425 76.1205 186.821 68.8226C184.061 64.4473 190.979 55.3878 205.8 43.9675C205.852 43.9264 205.913 43.8953 205.978 43.876C206.044 43.8568 206.112 43.8497 206.181 43.8553C206.249 43.8608 206.315 43.8789 206.376 43.9084C206.437 43.938 206.491 43.9784 206.535 44.0274C206.579 44.0764 206.612 44.133 206.633 44.194C206.654 44.255 206.661 44.3193 206.655 44.383C206.649 44.4467 206.63 44.5087 206.598 44.5655C206.567 44.6223 206.523 44.6726 206.471 44.7138L206.469 44.715L206.464 44.7189C192.503 55.477 185.321 64.5236 187.721 68.3282C191.884 74.9277 222.587 65.5601 254.767 47.8724C286.947 30.1847 310.617 9.66627 306.454 3.06677C304.044 -0.753857 292.018 0.744699 275.07 6.97804C275.006 7.0018 274.938 7.01362 274.87 7.01284C274.801 7.01205 274.734 6.99867 274.671 6.97346C274.608 6.94825 274.551 6.91171 274.503 6.86591C274.455 6.82011 274.417 6.76596 274.392 6.70655C274.366 6.64714 274.353 6.58363 274.354 6.51965C274.355 6.45567 274.369 6.39248 274.396 6.33367C274.424 6.27486 274.463 6.22159 274.512 6.17691C274.561 6.13222 274.619 6.09699 274.682 6.07323L274.684 6.07265L274.687 6.07137C292.677 -0.544668 304.583 -1.82001 307.354 2.57235C311.957 9.87028 289.091 30.1372 255.297 48.712Z" fill="#3F3D56"/>
<path d="M210.252 247.164C226.28 247.164 239.273 245.153 239.273 242.673C239.273 240.192 226.28 238.182 210.252 238.182C194.224 238.182 181.23 240.192 181.23 242.673C181.23 245.153 194.224 247.164 210.252 247.164Z" fill="#E6E6E6"/>
<path d="M113.529 294.64C140.495 294.64 162.356 290.383 162.356 285.131C162.356 279.88 140.495 275.623 113.529 275.623C86.5627 275.623 64.7021 279.88 64.7021 285.131C64.7021 290.383 86.5627 294.64 113.529 294.64Z" fill="#F2F2F2"/>
<path d="M312.382 311C352.59 311 385.186 304.652 385.186 296.822C385.186 288.992 352.59 282.645 312.382 282.645C272.174 282.645 239.579 288.992 239.579 296.822C239.579 304.652 272.174 311 312.382 311Z" fill="#F2F2F2"/>
<path d="M113.38 290.617C134.051 290.617 150.808 288.024 150.808 284.825C150.808 281.627 134.051 279.034 113.38 279.034C92.7096 279.034 75.9526 281.627 75.9526 284.825C75.9526 288.024 92.7096 290.617 113.38 290.617Z" fill="#E6E6E6"/>
<path d="M312.398 305.824C347.738 305.824 376.387 301.391 376.387 295.922C376.387 290.453 347.738 286.02 312.398 286.02C277.058 286.02 248.409 290.453 248.409 295.922C248.409 301.391 277.058 305.824 312.398 305.824Z" fill="#E6E6E6"/>
<path d="M30.1603 157.801C32.1781 157.801 33.8138 156.274 33.8138 154.391C33.8138 152.507 32.1781 150.98 30.1603 150.98C28.1425 150.98 26.5068 152.507 26.5068 154.391C26.5068 156.274 28.1425 157.801 30.1603 157.801Z" fill="white"/>
<path d="M285.903 207.495C287.921 207.495 289.557 205.968 289.557 204.085C289.557 202.201 287.921 200.674 285.903 200.674C283.885 200.674 282.25 202.201 282.25 204.085C282.25 205.968 283.885 207.495 285.903 207.495Z" fill="white"/>
<path d="M161.128 94.9919C169.998 97.3547 169.657 102.3 180.178 102.3C190.7 102.3 199.229 103.602 199.229 94.9919C199.229 86.3816 195.041 70.3755 180.178 71.1193C164.182 71.9198 155.75 93.5594 161.128 94.9919Z" fill="#2F2E41"/>
<path d="M137.785 167.902C137.403 167.225 137.185 166.478 137.146 165.714C137.108 164.949 137.249 164.186 137.56 163.478C137.871 162.771 138.345 162.135 138.947 161.616C139.55 161.098 140.267 160.709 141.048 160.477L162.873 117.38L172.857 123.915L148.264 164.223C148.595 165.474 148.422 166.794 147.779 167.934C147.136 169.074 146.067 169.954 144.775 170.407C143.483 170.861 142.058 170.856 140.77 170.395C139.482 169.933 138.42 169.046 137.785 167.902Z" fill="#FFB8B8"/>
<path d="M156.486 123.103C156.382 122.78 156.354 122.439 156.404 122.105C156.454 121.771 156.58 121.451 156.774 121.167L163.56 111.237C164.314 109.662 165.707 108.43 167.433 107.811C169.158 107.193 171.076 107.239 172.766 107.938C174.456 108.638 175.779 109.935 176.446 111.544C177.113 113.153 177.069 114.944 176.324 116.523L172.906 127.901C172.809 128.225 172.637 128.527 172.404 128.784C172.17 129.041 171.88 129.248 171.553 129.392C171.226 129.535 170.869 129.61 170.508 129.613C170.147 129.616 169.789 129.547 169.459 129.409L157.868 124.571C157.538 124.433 157.244 124.231 157.005 123.978C156.767 123.724 156.59 123.426 156.486 123.103Z" fill="#B05EFA"/>
<path d="M217.035 251.186L211.023 253.23L199.717 232.554L208.591 229.538L217.035 251.186Z" fill="#FFB8B8"/>
<path d="M206.102 253.086L217.698 249.145L220.356 255.96L201.46 262.383C200.755 260.575 200.848 258.58 201.719 256.837C202.589 255.093 204.166 253.744 206.102 253.086Z" fill="#2F2E41"/>
<path d="M200.621 238.108L177.716 200.69C177.494 200.328 177.38 199.918 177.385 199.501C177.39 199.084 177.513 198.676 177.743 198.319L188.057 182.272C188.302 181.891 188.657 181.583 189.082 181.383C189.506 181.184 189.983 181.1 190.456 181.143C190.929 181.186 191.38 181.354 191.755 181.626C192.131 181.898 192.416 182.264 192.577 182.682L212.078 233.091C212.293 233.64 212.28 234.244 212.041 234.784C211.803 235.324 211.357 235.761 210.79 236.009L203.88 239.065C203.547 239.212 203.182 239.288 202.813 239.288C202.369 239.289 201.933 239.18 201.548 238.973C201.163 238.766 200.843 238.467 200.621 238.108Z" fill="#2F2E41"/>
<path d="M179.365 101.832C186.445 101.832 192.184 96.4751 192.184 89.8664C192.184 83.2578 186.445 77.9004 179.365 77.9004C172.286 77.9004 166.546 83.2578 166.546 89.8664C166.546 96.4751 172.286 101.832 179.365 101.832Z" fill="#FFB8B8"/>
<path d="M161.132 144.068C151.037 123.172 161.214 111.494 166.058 107.443C167.454 106.275 169.262 105.629 171.137 105.63H189.195C190.492 105.63 191.767 105.94 192.9 106.529C194.032 107.119 194.985 107.969 195.666 108.998C196.348 110.028 196.737 111.203 196.795 112.413C196.853 113.622 196.579 114.825 196 115.908L183.928 138.445L161.23 144.271L161.132 144.068Z" fill="#B05EFA"/>
<path d="M175.731 256.836L169.332 256.836L166.288 233.797L175.732 233.798L175.731 256.836Z" fill="#FFB8B8"/>
<path d="M164.762 255.129H177.102V262.382H156.992C156.992 261.43 157.193 260.487 157.583 259.607C157.974 258.727 158.546 257.927 159.267 257.254C159.989 256.58 160.845 256.046 161.788 255.681C162.731 255.317 163.741 255.129 164.762 255.129Z" fill="#2F2E41"/>
<path d="M173.02 248.041L162.775 246.938C162.112 246.866 161.508 246.552 161.093 246.064C160.679 245.577 160.489 244.955 160.566 244.337C160.567 244.324 160.569 244.31 160.571 244.297L169.714 180.036C169.746 179.812 169.733 179.585 169.676 179.365L160.486 143.973C160.399 143.647 160.389 143.307 160.457 142.976C160.525 142.646 160.669 142.333 160.88 142.06C162.305 140.226 167.187 135.953 181.712 135.872H181.727C182.211 135.872 182.685 136.001 183.092 136.246C183.498 136.49 183.822 136.838 184.022 137.249L185.96 141.227C186.104 141.522 186.33 141.777 186.614 141.964C189.281 143.726 202.2 153.617 194.614 175.331C187.158 196.674 177.606 238.109 175.766 246.198C175.649 246.724 175.341 247.196 174.895 247.535C174.448 247.873 173.89 248.058 173.315 248.057C173.216 248.057 173.118 248.052 173.02 248.041Z" fill="#2F2E41"/>
<path d="M223.979 92.8694C224.004 93.138 224.052 93.4044 224.121 93.666L206.717 111.55L200.57 110.313L197.358 118.729L208.012 121.905C208.873 122.162 209.799 122.151 210.653 121.874C211.506 121.597 212.241 121.07 212.745 120.37L229.197 97.5714C230.308 97.6176 231.409 97.3468 232.351 96.795C233.294 96.2433 234.034 95.4367 234.474 94.4826C234.913 93.5286 235.031 92.4722 234.812 91.4541C234.592 90.4359 234.046 89.5042 233.246 88.7829C232.445 88.0616 231.428 87.5849 230.331 87.4161C229.233 87.2474 228.106 87.3946 227.1 87.8382C226.094 88.2818 225.257 89.0008 224.699 89.8996C224.142 90.7983 223.891 91.8342 223.979 92.8694Z" fill="#FFB8B8"/>
<path d="M206.19 112.308L202.155 122.721C202.04 123.017 201.858 123.287 201.622 123.511C201.385 123.736 201.1 123.911 200.784 124.023C200.469 124.135 200.131 124.183 199.795 124.163C199.458 124.142 199.13 124.054 198.833 123.905L188.421 118.669C186.8 118.112 185.482 116.978 184.756 115.516C184.03 114.053 183.954 112.381 184.547 110.867C185.139 109.353 186.35 108.119 187.915 107.438C189.48 106.756 191.271 106.681 192.895 107.23L204.448 109.414C204.779 109.476 205.091 109.605 205.364 109.79C205.637 109.976 205.864 110.214 206.029 110.489C206.194 110.763 206.294 111.068 206.322 111.382C206.35 111.696 206.305 112.012 206.19 112.308Z" fill="#B05EFA"/>
<path d="M195.053 89.1451H189.983L187.746 83.2988L187.299 89.1451H184.876L183.571 85.7348L183.31 89.1451C176.968 91.6428 170.957 91.7118 165.303 89.1451C165.303 85.7856 166.733 82.5637 169.278 80.1881C171.823 77.8126 175.274 76.478 178.873 76.478H181.483C185.082 76.478 188.534 77.8126 191.079 80.1881C193.623 82.5637 195.053 85.7856 195.053 89.1451Z" fill="#2F2E41"/>
<path d="M59.6489 214.316H57.8222V212.61C57.8222 212.029 57.5747 211.471 57.1343 211.06C56.6938 210.649 56.0964 210.418 55.4735 210.418C54.8506 210.418 54.2532 210.649 53.8128 211.06C53.3723 211.471 53.1249 212.029 53.1249 212.61V214.316H51.2981C50.6752 214.316 50.0778 214.547 49.6374 214.958C49.1969 215.369 48.9495 215.926 48.9495 216.508C48.9495 217.089 49.1969 217.647 49.6374 218.058C50.0778 218.469 50.6752 218.7 51.2981 218.7H53.1249V220.405C53.1249 220.987 53.3723 221.545 53.8128 221.956C54.2532 222.367 54.8506 222.598 55.4735 222.598C56.0964 222.598 56.6938 222.367 57.1343 221.956C57.5747 221.545 57.8222 220.987 57.8222 220.405V218.7H59.6489C60.2718 218.7 60.8692 218.469 61.3097 218.058C61.7501 217.647 61.9976 217.089 61.9976 216.508C61.9976 215.926 61.7501 215.369 61.3097 214.958C60.8692 214.547 60.2718 214.316 59.6489 214.316Z" fill="white"/>
<path d="M328.523 172.495H327.574V171.608C327.574 171.306 327.445 171.016 327.216 170.802C326.987 170.588 326.676 170.468 326.352 170.468C326.028 170.468 325.718 170.588 325.489 170.802C325.26 171.016 325.131 171.306 325.131 171.608V172.495H324.181C323.857 172.495 323.546 172.615 323.317 172.829C323.088 173.043 322.96 173.333 322.96 173.635C322.96 173.937 323.088 174.227 323.317 174.441C323.546 174.655 323.857 174.775 324.181 174.775H325.131V175.662C325.131 175.964 325.26 176.254 325.489 176.468C325.718 176.682 326.028 176.802 326.352 176.802C326.676 176.802 326.987 176.682 327.216 176.468C327.445 176.254 327.574 175.964 327.574 175.662V174.775H328.523C328.847 174.776 329.158 174.656 329.388 174.443C329.617 174.229 329.746 173.939 329.747 173.637C329.747 173.335 329.619 173.045 329.391 172.83C329.162 172.616 328.852 172.496 328.528 172.495H328.523Z" fill="#FF6584"/>
<path d="M51.3818 113.544H50.4319V112.657C50.4325 112.355 50.3044 112.065 50.0758 111.851C49.8472 111.636 49.5367 111.516 49.2128 111.515C49.0525 111.515 48.8936 111.544 48.7453 111.601C48.597 111.658 48.4622 111.742 48.3486 111.848C48.1191 112.061 47.9899 112.351 47.9893 112.653V113.544H47.0394C46.879 113.544 46.7201 113.573 46.5718 113.63C46.4236 113.687 46.2888 113.771 46.1752 113.876C46.0615 113.982 45.9714 114.108 45.9097 114.246C45.8481 114.384 45.8162 114.532 45.8159 114.682C45.8156 114.832 45.847 114.98 45.9081 115.118C45.9692 115.257 46.0589 115.383 46.1721 115.489C46.2853 115.595 46.4198 115.679 46.5679 115.737C46.7159 115.794 46.8747 115.824 47.0351 115.824H47.9893V116.711C47.9887 117.013 48.1168 117.303 48.3454 117.518C48.574 117.732 48.8844 117.852 49.2083 117.853C49.5322 117.853 49.8431 117.734 50.0726 117.521C50.302 117.307 50.4313 117.017 50.4319 116.715V115.824H51.3818C51.7057 115.825 52.0167 115.706 52.2464 115.492C52.4761 115.279 52.6056 114.99 52.6065 114.687C52.6075 114.385 52.4797 114.095 52.2513 113.88C52.0229 113.666 51.7126 113.545 51.3887 113.544H51.3861L51.3818 113.544Z" fill="#B05EFA"/>
<path d="M121.842 113.544H120.892V112.657C120.892 112.355 120.764 112.065 120.535 111.851C120.307 111.636 119.996 111.516 119.673 111.515C119.349 111.515 119.038 111.634 118.808 111.848C118.579 112.061 118.45 112.351 118.449 112.653V113.544H117.499C117.175 113.543 116.864 113.663 116.635 113.876C116.405 114.09 116.276 114.38 116.276 114.682C116.275 114.984 116.403 115.275 116.632 115.489C116.86 115.703 117.171 115.824 117.495 115.824H118.449V116.711C118.448 117.013 118.576 117.303 118.805 117.518C119.034 117.732 119.344 117.852 119.668 117.853C119.992 117.853 120.303 117.734 120.532 117.521C120.762 117.307 120.891 117.017 120.892 116.715V115.824H121.842C122.165 115.825 122.476 115.706 122.706 115.492C122.936 115.279 123.065 114.99 123.066 114.687C123.067 114.385 122.939 114.095 122.711 113.88C122.483 113.666 122.172 113.545 121.848 113.544H121.846L121.842 113.544Z" fill="white"/>
<path d="M364.536 230.471H363.586V229.584C363.586 229.282 363.458 228.992 363.229 228.778C363 228.564 362.689 228.444 362.365 228.444C362.041 228.444 361.731 228.564 361.501 228.778C361.272 228.992 361.144 229.282 361.144 229.584V230.471H360.194C359.87 230.471 359.559 230.591 359.33 230.805C359.101 231.019 358.973 231.309 358.973 231.611C358.973 231.913 359.101 232.203 359.33 232.417C359.559 232.631 359.87 232.751 360.194 232.751H361.144V233.638C361.144 233.94 361.272 234.23 361.501 234.444C361.731 234.658 362.041 234.778 362.365 234.778C362.689 234.778 363 234.658 363.229 234.444C363.458 234.23 363.586 233.94 363.586 233.638V232.751H364.536C364.86 232.751 365.171 232.631 365.4 232.417C365.629 232.203 365.758 231.913 365.758 231.611C365.758 231.309 365.629 231.019 365.4 230.805C365.171 230.591 364.86 230.471 364.536 230.471Z" fill="white"/>
<path d="M254.932 135.468H253.982V134.581C253.982 134.279 253.854 133.989 253.625 133.775C253.395 133.561 253.085 133.441 252.761 133.441C252.437 133.441 252.126 133.561 251.897 133.775C251.668 133.989 251.54 134.279 251.54 134.581V135.468H250.59C250.266 135.468 249.955 135.588 249.726 135.802C249.497 136.015 249.368 136.305 249.368 136.608C249.368 136.91 249.497 137.2 249.726 137.414C249.955 137.628 250.266 137.748 250.59 137.748H251.54V138.634C251.54 138.937 251.668 139.227 251.897 139.441C252.126 139.654 252.437 139.774 252.761 139.774C253.085 139.774 253.395 139.654 253.625 139.441C253.854 139.227 253.982 138.937 253.982 138.634V137.748H254.932C255.093 137.748 255.251 137.719 255.4 137.662C255.548 137.605 255.683 137.521 255.796 137.415C255.91 137.31 256 137.184 256.062 137.046C256.123 136.908 256.155 136.759 256.156 136.61C256.156 136.46 256.125 136.312 256.063 136.173C256.002 136.035 255.913 135.909 255.799 135.803C255.686 135.697 255.552 135.613 255.404 135.555C255.256 135.498 255.097 135.468 254.936 135.468H254.932Z" fill="white"/>
<path d="M87.3945 159.828H86.4446V158.941C86.4452 158.639 86.3171 158.348 86.0885 158.134C85.8599 157.92 85.5494 157.799 85.2255 157.799C84.9016 157.798 84.5908 157.918 84.3613 158.131C84.1318 158.345 84.0026 158.634 84.002 158.937V159.828H83.0521C82.7282 159.827 82.4173 159.947 82.1879 160.16C81.9584 160.374 81.8292 160.663 81.8286 160.966C81.828 161.268 81.9562 161.558 82.1848 161.772C82.4134 161.987 82.7239 162.107 83.0478 162.108H84.002V162.994C84.0014 163.297 84.1295 163.587 84.3581 163.801C84.5867 164.015 84.8971 164.136 85.221 164.137C85.5449 164.137 85.8558 164.018 86.0853 163.804C86.3147 163.591 86.444 163.301 86.4446 162.999V162.108H87.3945C87.7184 162.108 88.0293 161.989 88.2587 161.775C88.4881 161.562 88.6173 161.272 88.6179 160.97C88.6185 160.667 88.4904 160.377 88.2617 160.163C88.0331 159.949 87.7227 159.828 87.3988 159.828L87.3945 159.828Z" fill="white"/>
<path d="M90.5261 78.9532H89.5762V78.0665C89.5768 77.7641 89.4487 77.4739 89.2201 77.2597C88.9915 77.0455 88.681 76.9249 88.3571 76.9243C88.0332 76.9238 87.7223 77.0433 87.4929 77.2567C87.2634 77.4701 87.1342 77.7599 87.1336 78.0622V78.9532H86.1837C85.8597 78.9527 85.5489 79.0723 85.3194 79.2857C85.09 79.4991 84.9608 79.7889 84.9602 80.0912C84.9596 80.3936 85.0878 80.6838 85.3164 80.8979C85.545 81.1121 85.8555 81.2327 86.1794 81.2333H87.1336V82.12C87.133 82.4223 87.2611 82.7125 87.4897 82.9267C87.7183 83.1409 88.0287 83.2615 88.3526 83.2621C88.6765 83.2627 88.9874 83.1431 89.2168 82.9297C89.4463 82.7163 89.5756 82.4266 89.5762 82.1242V81.2333H90.5261C90.85 81.2338 91.1608 81.1142 91.3903 80.9008C91.6197 80.6873 91.7489 80.3976 91.7495 80.0952C91.7501 79.7929 91.6219 79.5027 91.3933 79.2885C91.1647 79.0743 90.8543 78.9537 90.5304 78.9532L90.5261 78.9532Z" fill="white"/>
<path d="M252.762 47.5014C214.955 29.6748 183.251 35.4673 182.825 32.3925C182.826 27.315 193.711 22.7855 212.691 19.966C212.759 19.9553 212.828 19.9572 212.895 19.9715C212.961 19.9859 213.025 20.0123 213.081 20.0495C213.136 20.0866 213.184 20.1337 213.22 20.1879C213.257 20.2422 213.281 20.3027 213.293 20.3658C213.304 20.429 213.302 20.4936 213.286 20.556C213.271 20.6184 213.243 20.6773 213.203 20.7294C213.163 20.7815 213.112 20.8258 213.054 20.8597C212.996 20.8936 212.931 20.9165 212.863 20.927L212.862 20.9273L212.855 20.9283C194.976 23.5844 183.869 27.9773 183.869 32.3925C183.868 40.0511 215.417 46.5239 252.762 46.527C290.106 46.5302 321.656 40.0627 321.657 32.4041C321.657 27.9703 310.481 23.5649 292.488 20.9073C292.42 20.8977 292.355 20.8756 292.297 20.8425C292.238 20.8093 292.187 20.7657 292.146 20.7142C292.106 20.6626 292.076 20.6041 292.06 20.5419C292.044 20.4798 292.041 20.4153 292.051 20.352C292.061 20.2888 292.085 20.2281 292.12 20.1733C292.156 20.1186 292.203 20.0709 292.258 20.033C292.313 19.9952 292.376 19.9678 292.442 19.9525C292.509 19.9373 292.578 19.9344 292.646 19.9441L292.648 19.9443L292.651 19.9449C311.749 22.7657 322.701 27.307 322.701 32.4042C322.7 40.8733 287.766 64.0072 252.762 47.5014Z" fill="#3F3D56"/>
</g>
<defs>
<clipPath id="clip0_2015_1617">
<rect width="408" height="311" fill="white"/>
</clipPath>
</defs>
</svg>
