<svg width="224" height="150" viewBox="0 0 224 150" fill="none" xmlns="http://www.w3.org/2000/svg">
<path d="M61.7769 91.3259L57.8409 91.4099L55.8429 91.4429C55.1739 91.4429 54.5019 91.4429 53.8329 91.4579H53.7009V91.3229L53.6829 87.9659V87.8159H53.8329L57.8049 87.8339C59.1309 87.8339 60.4539 87.8669 61.7769 87.8819H61.8609V87.9629C61.8609 88.5329 61.8339 89.0969 61.8219 89.6579L61.7769 91.3259ZM61.7769 91.3259L61.7349 89.6279C61.7349 89.0699 61.7019 88.5179 61.6959 87.9689L61.7769 88.0499C60.4539 88.0649 59.1309 88.0979 57.8049 88.0979L53.8329 88.1189L53.9829 87.9689V91.3259L53.8479 91.1909C54.5019 91.1909 55.1559 91.1909 55.8129 91.2089L57.7869 91.2419L61.7769 91.3259Z" fill="#EBEBEB"/>
<path d="M57.346 95.5589L53.41 95.6429L51.412 95.6759C50.743 95.6759 50.071 95.6759 49.402 95.6909H49.27V95.5559L49.252 92.1989V92.0459H49.402L53.374 92.0639C54.697 92.0639 56.023 92.0969 57.346 92.1119H57.43V92.1929C57.43 92.7629 57.406 93.3269 57.391 93.8879L57.346 95.5589ZM57.346 95.5589L57.304 93.8609C57.289 93.3029 57.271 92.7509 57.265 92.2019L57.346 92.2829C56.023 92.2979 54.697 92.3309 53.374 92.3309L49.402 92.3519L49.552 92.2019L49.537 95.5589L49.402 95.4239C50.056 95.4239 50.71 95.4239 51.367 95.4419L53.341 95.4749L57.346 95.5589Z" fill="#EBEBEB"/>
<path d="M117.133 30.9417L113.194 31.0257L111.196 31.0587C110.53 31.0587 109.858 31.0587 109.189 31.0767H109.054V30.9417L109.039 27.5997V27.4497H109.192L113.164 27.4707C114.487 27.4707 115.81 27.5037 117.136 27.5187H117.217V27.5997C117.217 28.1697 117.19 28.7367 117.178 29.2977L117.133 30.9417ZM117.133 30.9417L117.1 29.2467C117.1 28.6887 117.067 28.1367 117.061 27.5847L117.145 27.6687C115.819 27.6687 114.496 27.7167 113.173 27.7167L109.201 27.7347L109.351 27.5847L109.333 30.9417L109.201 30.8097C109.855 30.8097 110.506 30.8097 111.163 30.8097L113.137 30.8427L117.133 30.9417Z" fill="#EBEBEB"/>
<path d="M112.702 35.175L108.763 35.259L106.765 35.292C106.096 35.292 105.427 35.292 104.755 35.31H104.623V35.175L104.605 31.818V31.668H104.755L108.727 31.689C110.053 31.689 111.376 31.722 112.699 31.737H112.783V31.818C112.783 32.388 112.756 32.955 112.744 33.516L112.702 35.175ZM112.702 35.175L112.657 33.48C112.657 32.922 112.624 32.367 112.618 31.818L112.699 31.902C111.376 31.902 110.053 31.95 108.727 31.95L104.755 31.968L104.905 31.818V35.175L104.77 35.043C105.427 35.043 106.078 35.043 106.735 35.043L108.7 35.1L112.702 35.175Z" fill="#EBEBEB"/>
<path d="M108.286 30.9417L104.35 31.0257L102.352 31.0587C101.683 31.0587 101.011 31.0587 100.342 31.0767H100.21V30.9417L100.192 27.5997V27.4497H100.342L104.314 27.4707C105.637 27.4707 106.963 27.5037 108.286 27.5187H108.37V27.5997C108.37 28.1697 108.346 28.7367 108.331 29.2977L108.286 30.9417ZM108.286 30.9417L108.244 29.2467C108.244 28.6887 108.211 28.1367 108.205 27.5847L108.286 27.6687C106.963 27.6687 105.637 27.7167 104.314 27.7167L100.342 27.7347L100.492 27.5847V30.9417L100.357 30.8097C101.011 30.8097 101.665 30.8097 102.322 30.8097L104.296 30.8427L108.286 30.9417Z" fill="#EBEBEB"/>
<path d="M174.598 95.5589L170.659 95.6429L168.661 95.6759C167.995 95.6759 167.323 95.6759 166.654 95.6909H166.519V95.5559L166.504 92.1989V92.0459H166.654L170.626 92.0639C171.949 92.0639 173.275 92.0969 174.598 92.1119H174.679V92.1929C174.679 92.7629 174.655 93.3269 174.64 93.8879L174.598 95.5589ZM174.598 95.5589L174.556 93.8609C174.556 93.3029 174.52 92.7509 174.517 92.2019L174.598 92.2829C173.275 92.2979 171.949 92.3309 170.626 92.3309L166.654 92.3519L166.804 92.2019L166.786 95.5589L166.654 95.4239C167.308 95.4239 167.962 95.4239 168.616 95.4419L170.59 95.4749L174.598 95.5589Z" fill="#EBEBEB"/>
<path d="M170.167 14.2978L166.228 14.3788L164.23 14.4148C163.564 14.4148 162.892 14.4148 162.223 14.4298H162.1V14.2948V10.9408V10.7998H162.253L166.225 10.8178C167.548 10.8178 168.871 10.8508 170.197 10.8658H170.278V10.9468C170.278 11.5138 170.251 12.0808 170.239 12.6418L170.167 14.2978ZM170.167 14.2978L170.125 12.5998C170.11 12.0418 170.089 11.4898 170.083 10.9408L170.167 11.0218C168.841 11.0218 167.518 11.0698 166.195 11.0698L162.223 11.0998L162.373 10.9528L162.355 14.3068L162.223 14.1748C162.877 14.1748 163.528 14.1748 164.185 14.1748L166.159 14.2108L170.167 14.2978Z" fill="#EBEBEB"/>
<path d="M174.598 18.5278L170.659 18.5998L168.661 18.6358C167.995 18.6358 167.323 18.6358 166.654 18.6508H166.519V18.5158L166.504 15.1618V15.0088H166.654L170.626 15.0268C171.949 15.0268 173.275 15.0598 174.598 15.0748H174.679V15.1558C174.679 15.7228 174.655 16.2898 174.64 16.8508L174.598 18.5278ZM174.598 18.5278L174.556 16.8328C174.556 16.2748 174.52 15.7228 174.517 15.1738L174.598 15.2548C173.275 15.2548 171.949 15.3028 170.626 15.3028L166.654 15.3208L166.804 15.1738L166.786 18.5278L166.654 18.3958C167.308 18.3958 167.962 18.3958 168.616 18.3958L170.59 18.4318L174.598 18.5278Z" fill="#EBEBEB"/>
<path d="M125.461 84.2249L121.522 84.3089L119.524 84.3419C118.858 84.3419 118.186 84.3419 117.517 84.3569H117.382V84.2219L117.367 80.8649V80.7119H117.52L121.492 80.7299C122.815 80.7299 124.138 80.7629 125.464 80.7779H125.545V80.8589C125.545 81.4289 125.518 81.9929 125.506 82.5539L125.461 84.2249ZM125.461 84.2249L125.419 82.5269C125.404 81.9689 125.383 81.4169 125.377 80.8679L125.461 80.9489C124.135 80.9639 122.812 80.9969 121.489 80.9969L117.517 81.0179L117.667 80.8679L117.649 84.2249L117.517 84.0899C118.171 84.0899 118.822 84.0899 119.479 84.1079L121.453 84.1409L125.461 84.2249Z" fill="#EBEBEB"/>
<path d="M129.892 88.4578L125.953 88.5388L123.955 88.5748C123.289 88.5748 122.617 88.5748 121.948 88.5898H121.813V88.4548V85.0978V84.9448H121.963L125.935 84.9628C127.258 84.9628 128.584 84.9958 129.907 85.0108H129.988V85.0918C129.988 85.6618 129.964 86.2258 129.949 86.7868L129.892 88.4578ZM129.892 88.4578L129.85 86.7598C129.835 86.2018 129.814 85.6498 129.811 85.1008L129.892 85.1818C128.569 85.1968 127.243 85.2298 125.92 85.2298L121.948 85.2508L122.098 85.1008L122.08 88.4578L121.948 88.3228C122.602 88.3228 123.256 88.3228 123.91 88.3408L125.884 88.3738L129.892 88.4578Z" fill="#EBEBEB"/>
<path d="M61.7769 14.2978L57.8409 14.3788L55.8429 14.4148C55.1739 14.4148 54.5019 14.4148 53.8329 14.4298H53.7009V14.2948L53.6829 10.9408V10.7998H53.8329H57.8049C59.1309 10.7998 60.4539 10.8328 61.7769 10.8478H61.8609V10.9288C61.8609 11.4958 61.8339 12.0628 61.8219 12.6238L61.7769 14.2978ZM61.7769 14.2978L61.7349 12.5998C61.7349 12.0418 61.7019 11.4898 61.6959 10.9408L61.7769 11.0218C60.4539 11.0218 59.1309 11.0698 57.8049 11.0698L53.8329 11.0998L53.9829 10.9528V14.3068L53.8479 14.1748C54.5019 14.1748 55.1559 14.1748 55.8129 14.1748L57.7869 14.2108L61.7769 14.2978Z" fill="#EBEBEB"/>
<path d="M98.7579 36.7407H52.9958V38.6277H98.7579V36.7407Z" fill="#EBEBEB"/>
<path d="M57.3009 38.6309H55.4109V44.8739H57.3009V38.6309Z" fill="#EBEBEB"/>
<path d="M57.3009 38.6309H55.4109V40.5599H57.3009V38.6309Z" fill="#DBDBDB"/>
<path d="M96.3461 38.6309H94.4561V44.8739H96.3461V38.6309Z" fill="#EBEBEB"/>
<path d="M96.3461 38.6309H94.4561V40.5599H96.3461V38.6309Z" fill="#DBDBDB"/>
<path d="M68.884 30.4198L68.515 31.3888L68.293 31.9768L67.924 32.9488L66.493 36.7438H58.747L57.31 32.9488L56.944 31.9768L56.722 31.3888L56.353 30.4198L59.212 26.2558L57.73 23.5078H67.513L66.025 26.2558L68.884 30.4198Z" fill="#DBDBDB"/>
<path d="M68.884 30.4199L68.515 31.3889H56.722L56.353 30.4199H68.884Z" fill="#A6A6A6"/>
<path d="M68.2928 31.9766L67.9238 32.9486H57.3098L56.9438 31.9766H68.2928Z" fill="#A6A6A6"/>
<path d="M93.1509 18.7017H78.2559V36.7677H93.1509V18.7017Z" fill="#DBDBDB"/>
<path d="M91.447 20.3486H79.957V35.1176H91.447V20.3486Z" fill="white"/>
<path d="M80.404 20.3486H79.957V35.1176H80.404V20.3486Z" fill="#C7C7C7"/>
<path d="M93.5979 18.7017H93.1509V36.7677H93.5979V18.7017Z" fill="#C7C7C7"/>
<path d="M82.1859 36.7529H70.8669L73.2879 23.0249H84.6069L82.1859 36.7529Z" fill="#DBDBDB"/>
<path d="M81.1118 35.4988H72.3818L74.3618 24.2788H83.0918L81.1118 35.4988Z" fill="white"/>
<path d="M72.7238 35.4988H72.3818L74.3618 24.2788H74.7008L72.7238 35.4988Z" fill="#C7C7C7"/>
<path d="M82.525 36.7529H82.186L84.607 23.0249H84.946L82.525 36.7529Z" fill="#C7C7C7"/>
<path d="M174.322 77.4326H172.252V129.018H174.322V77.4326Z" fill="#C7C7C7"/>
<path d="M172.252 77.4326H138.745V129.018H172.252V77.4326Z" fill="#DBDBDB"/>
<path d="M169.096 125.55C166.552 127.596 164.95 124.896 160.225 124.896C155.5 124.896 155.5 125.472 150.772 125.472C146.044 125.472 144.553 129.714 141.172 126.414C137.872 123.201 141.946 121.653 141.946 117.048C141.946 112.443 140.431 112.44 140.431 107.835C140.431 103.23 140.08 103.227 140.08 98.6216C140.08 94.0166 142.48 94.0136 142.48 89.4086C142.48 84.8036 138.844 84.2396 142.144 81.0236C145.528 77.7236 146.059 78.9596 150.787 78.9596C155.515 78.9596 155.512 79.6706 160.24 79.6706C164.968 79.6706 165.568 77.6516 168.955 80.9516C172.255 84.1646 168.712 84.8006 168.712 89.4056C168.712 94.0106 171.034 94.0106 171.034 98.6186C171.034 103.227 170.134 103.224 170.134 107.832C170.134 112.44 169.36 112.392 170.401 116.88C171.547 121.845 171.493 123.621 169.096 125.55Z" fill="#C7C7C7"/>
<path d="M169.87 79.3916C169.87 79.4943 169.9 79.5948 169.958 79.6802C170.015 79.7656 170.096 79.8322 170.191 79.8713C170.286 79.9105 170.39 79.9206 170.491 79.9004C170.592 79.8801 170.684 79.8304 170.757 79.7575C170.829 79.6846 170.879 79.5918 170.898 79.491C170.918 79.3901 170.907 79.2856 170.868 79.1909C170.828 79.0961 170.761 79.0152 170.675 78.9586C170.589 78.9019 170.489 78.872 170.386 78.8726C170.318 78.8726 170.251 78.886 170.188 78.9121C170.125 78.9382 170.068 78.9765 170.02 79.0248C169.972 79.073 169.934 79.1302 169.908 79.1932C169.883 79.2561 169.869 79.3236 169.87 79.3916Z" fill="#C7C7C7"/>
<path d="M140.092 79.3916C140.092 79.4942 140.122 79.5946 140.18 79.6799C140.237 79.7653 140.318 79.8318 140.412 79.8711C140.507 79.9103 140.612 79.9206 140.712 79.9006C140.813 79.8806 140.905 79.8311 140.978 79.7586C141.051 79.686 141.1 79.5935 141.12 79.4928C141.14 79.3921 141.13 79.2878 141.091 79.193C141.051 79.0981 140.985 79.0171 140.899 78.96C140.814 78.903 140.714 78.8726 140.611 78.8726C140.543 78.8722 140.475 78.8853 140.412 78.9113C140.349 78.9372 140.291 78.9754 140.243 79.0237C140.195 79.072 140.157 79.1293 140.131 79.1925C140.105 79.2556 140.092 79.3233 140.092 79.3916Z" fill="#C7C7C7"/>
<path d="M169.87 127.062C169.869 127.165 169.899 127.266 169.956 127.351C170.013 127.437 170.094 127.504 170.189 127.544C170.284 127.583 170.388 127.594 170.489 127.574C170.59 127.554 170.683 127.505 170.756 127.432C170.829 127.359 170.878 127.266 170.898 127.165C170.918 127.064 170.907 126.96 170.868 126.865C170.828 126.77 170.761 126.689 170.675 126.632C170.59 126.575 170.489 126.545 170.386 126.546C170.318 126.546 170.251 126.559 170.188 126.585C170.126 126.611 170.069 126.649 170.021 126.697C169.973 126.745 169.935 126.802 169.909 126.864C169.883 126.927 169.87 126.994 169.87 127.062Z" fill="#C7C7C7"/>
<path d="M140.092 127.062C140.091 127.165 140.121 127.265 140.178 127.351C140.235 127.437 140.316 127.504 140.41 127.544C140.505 127.583 140.61 127.594 140.71 127.574C140.811 127.555 140.904 127.505 140.977 127.433C141.05 127.36 141.1 127.268 141.12 127.167C141.14 127.067 141.13 126.962 141.091 126.867C141.052 126.772 140.985 126.691 140.9 126.634C140.814 126.576 140.714 126.546 140.611 126.546C140.543 126.546 140.476 126.559 140.413 126.584C140.35 126.61 140.292 126.648 140.244 126.696C140.196 126.744 140.158 126.801 140.132 126.864C140.105 126.927 140.092 126.994 140.092 127.062Z" fill="#C7C7C7"/>
<path d="M158.104 128.976H132.646L138.091 89.7808H163.549L158.104 128.976Z" fill="#EBEBEB"/>
<path d="M160.411 128.976H158.104L163.549 89.7808H165.856L160.411 128.976Z" fill="#DBDBDB"/>
<path d="M133.519 15.7676H117.847V34.7756H133.519V15.7676Z" fill="#DBDBDB"/>
<path d="M131.728 17.502H119.638V33.042H131.728V17.502Z" fill="white"/>
<path d="M120.109 17.502H119.638V33.042H120.109V17.502Z" fill="#C7C7C7"/>
<path d="M133.99 15.7676H133.519V34.7756H133.99V15.7676Z" fill="#C7C7C7"/>
<path d="M125.953 29.5859H128.803V21.0929H125.953V29.5859Z" fill="#DBDBDB"/>
<path d="M130.198 23.955H122.296V19.5H130.198V23.955ZM122.596 23.655H129.898V19.8H122.596V23.655Z" fill="#EBEBEB"/>
<path d="M173.851 26.187H158.179V45.195H173.851V26.187Z" fill="#DBDBDB"/>
<path d="M172.06 27.9238H159.97V43.4638H172.06V27.9238Z" fill="white"/>
<path d="M160.441 27.9238H159.97V43.4638H160.441V27.9238Z" fill="#C7C7C7"/>
<path d="M174.322 26.187H173.851V45.195H174.322V26.187Z" fill="#C7C7C7"/>
<path d="M166.87 31.5146H164.02V40.0076H166.87V31.5146Z" fill="#DBDBDB"/>
<path d="M170.53 34.377H162.628V29.916H170.53V34.377ZM162.928 34.077H170.23V30.216H162.928V34.077Z" fill="#EBEBEB"/>
<path d="M153.685 20.9756H138.013V39.9836H153.685V20.9756Z" fill="#DBDBDB"/>
<path d="M151.894 22.7129H139.804V38.2529H151.894V22.7129Z" fill="white"/>
<path d="M140.275 22.7129H139.804V38.2529H140.275V22.7129Z" fill="#C7C7C7"/>
<path d="M154.156 20.9756H153.685V39.9836H154.156V20.9756Z" fill="#C7C7C7"/>
<path d="M147.121 26.73H144.679V32.904H147.121V26.73Z" fill="#EBEBEB"/>
<path d="M149.842 34.89H142.981V30.333H149.842V34.89ZM143.281 34.59H149.542V30.633H143.281V34.59Z" fill="#DBDBDB"/>
<path d="M49.1169 129.018L64.8399 128.946L80.5599 128.919L112 128.868L143.44 128.919L159.16 128.946L174.883 129.018L159.16 129.093L143.44 129.12L112 129.168L80.5599 129.117L64.8399 129.093L49.1169 129.018Z" fill="#263238"/>
<path d="M102.556 139.728C127.985 139.728 148.6 138.297 148.6 136.533C148.6 134.768 127.985 133.338 102.556 133.338C77.1266 133.338 56.512 134.768 56.512 136.533C56.512 138.297 77.1266 139.728 102.556 139.728Z" fill="#EBEBEB"/>
<path d="M107.782 73.521C107.782 73.521 99.9821 72.429 101.815 63.021C101.815 63.027 110.518 64.98 107.782 73.521Z" fill="#A855F7"/>
<path opacity="0.1" d="M107.782 73.521C107.782 73.521 99.9821 72.429 101.815 63.021C101.815 63.027 110.518 64.98 107.782 73.521Z" fill="black"/>
<path d="M107.389 71.5558C107.237 71.0797 107.06 70.6121 106.858 70.1548C106.858 70.0948 106.843 70.0348 106.84 69.9778C106.84 69.8488 106.816 69.7198 106.807 69.5908C106.786 69.3088 106.768 69.0268 106.75 68.7478C106.717 68.1868 106.681 67.6228 106.672 67.0618C106.673 67.0582 106.674 67.0543 106.673 67.0504C106.673 67.0466 106.671 67.0429 106.669 67.0397C106.667 67.0366 106.664 67.034 106.661 67.0322C106.657 67.0304 106.653 67.0295 106.65 67.0295C106.646 67.0295 106.642 67.0304 106.638 67.0322C106.635 67.034 106.632 67.0366 106.63 67.0397C106.628 67.0429 106.626 67.0466 106.626 67.0504C106.625 67.0543 106.626 67.0582 106.627 67.0618C106.627 67.6258 106.612 68.1868 106.627 68.7508C106.627 69.0298 106.654 69.3118 106.675 69.5938C106.675 69.6538 106.675 69.7168 106.675 69.7798C106.238 68.8431 105.715 67.9493 105.112 67.1098C104.847 66.7355 104.562 66.3751 104.26 66.0298C103.96 65.6728 103.624 65.3338 103.309 64.9828C103.288 64.9588 103.255 64.9828 103.276 65.0188C103.836 65.6368 104.338 66.3046 104.776 67.0138C105.013 67.3708 105.238 67.7398 105.451 68.1118L105.4 68.0998C105.307 68.0608 105.214 68.0218 105.121 67.9888L104.485 67.7458C104.068 67.5928 103.648 67.4458 103.231 67.2808C103.207 67.2808 103.189 67.3138 103.231 67.3258C103.645 67.4908 104.053 67.6648 104.464 67.8418L105.064 68.0998C105.163 68.1448 105.265 68.1838 105.364 68.2258C105.43 68.2581 105.499 68.2823 105.571 68.2978C105.727 68.5798 105.871 68.8648 106.027 69.1528C106.389 69.881 106.706 70.6304 106.978 71.3968C106.999 71.4508 107.017 71.5048 107.035 71.5588C106.83 71.4427 106.616 71.3424 106.396 71.2588L105.592 70.8928C105.046 70.6408 104.503 70.3858 103.978 70.0918C103.972 70.0886 103.966 70.0878 103.96 70.0895C103.953 70.0912 103.948 70.0952 103.945 70.1008C103.942 70.1064 103.941 70.113 103.943 70.1192C103.944 70.1254 103.948 70.1306 103.954 70.1338C104.491 70.4338 105.016 70.7338 105.55 71.0338C105.82 71.1778 106.09 71.3188 106.363 71.4538C106.59 71.5917 106.837 71.6929 107.095 71.7538C107.354 72.4673 107.526 73.2098 107.605 73.9648C107.692 75.0268 107.683 76.1008 107.707 77.1658C107.707 77.1838 107.734 77.1838 107.737 77.1658C107.812 76.1998 107.857 75.2218 107.86 74.2528C107.852 73.334 107.693 72.4228 107.389 71.5558Z" fill="#263238"/>
<path d="M106.189 66.0268C106.115 66.5764 106.09 67.1316 106.114 67.6858H106.135C106.168 67.1338 106.174 66.5878 106.237 66.0388C106.24 65.9998 106.195 65.9998 106.189 66.0268Z" fill="#263238"/>
<path d="M103.963 66.4979C103.615 66.3643 103.28 66.1996 102.961 66.0059C102.937 65.9879 102.913 66.0299 102.937 66.0479C103.25 66.2576 103.591 66.4204 103.951 66.5309C103.969 66.5369 103.981 66.5069 103.963 66.4979Z" fill="#263238"/>
<path d="M108.031 88.4488C108.031 87.5878 108.01 86.7298 108.001 85.8688C107.983 83.0098 107.959 80.1508 107.908 77.2918C107.868 75.0218 107.815 72.7528 107.749 70.4848C107.749 70.4787 107.747 70.4727 107.744 70.4675C107.741 70.4622 107.736 70.4579 107.731 70.4548C107.731 69.8338 107.731 69.2158 107.731 68.5948C107.731 68.5798 107.713 68.5708 107.695 68.5708C107.677 68.5708 107.659 68.5708 107.659 68.5978C107.659 69.2158 107.659 69.8358 107.659 70.4578C107.659 70.4578 107.641 70.4578 107.641 70.4848C107.527 74.5258 107.425 78.5638 107.401 82.6048C107.401 83.4268 107.401 84.2488 107.401 85.0678C107.375 87.7018 107.365 90.3358 107.371 92.9698C107.371 93.3898 107.371 93.8098 107.371 94.2298C107.371 96.6298 107.395 99.0478 107.395 101.46C107.395 101.589 107.539 101.652 107.695 101.658C107.851 101.664 108.058 101.595 108.058 101.448C108.058 98.7898 108.076 96.1318 108.076 93.4768C108.04 91.7998 108.046 90.1258 108.031 88.4488Z" fill="#263238"/>
<path d="M104.779 85.8359C104.779 85.8359 101.032 83.0579 97.4771 84.9359C93.9221 86.8139 93.3611 94.0409 93.3611 94.0409C93.3611 94.0409 98.5841 94.7879 101.872 91.6589C105.04 88.6409 104.779 85.8359 104.779 85.8359Z" fill="#A855F7"/>
<path d="M105.799 86.0067C105.111 85.7338 104.366 85.6359 103.63 85.7217C103.478 85.6964 103.325 85.6813 103.171 85.6767L102.643 85.6377C102.277 85.6107 101.914 85.5897 101.551 85.5597C100.81 85.5057 100.069 85.4607 99.3312 85.3857C99.3042 85.3857 99.3012 85.4307 99.3312 85.4337C100.063 85.5267 100.789 85.6317 101.521 85.7037C101.899 85.7427 102.274 85.7817 102.652 85.8087L102.928 85.8357C102.814 85.8597 102.703 85.8867 102.595 85.9167C102.007 86.0881 101.438 86.3193 100.897 86.6067C100.597 86.6607 100.297 86.7417 100.018 86.8107C99.5532 86.9217 99.0942 87.0387 98.6322 87.1617C97.7322 87.3987 96.8322 87.6687 95.9322 87.9297C95.9286 87.9284 95.9247 87.9279 95.9208 87.9284C95.917 87.9289 95.9133 87.9303 95.9101 87.9325C95.907 87.9347 95.9044 87.9377 95.9026 87.9411C95.9008 87.9446 95.8998 87.9484 95.8998 87.9522C95.8998 87.9561 95.9008 87.9599 95.9026 87.9634C95.9044 87.9668 95.907 87.9697 95.9101 87.972C95.9133 87.9742 95.917 87.9756 95.9208 87.9761C95.9247 87.9765 95.9286 87.9761 95.9322 87.9747C96.8322 87.7557 97.7322 87.5517 98.6472 87.3357C99.0852 87.2307 99.5262 87.1287 99.9642 87.0207L100.309 86.9397C99.3025 87.5636 98.403 88.3456 97.6452 89.2557C96.9144 90.1517 96.293 91.1316 95.7942 92.1747C95.7942 92.2017 95.8182 92.2287 95.8332 92.2017C96.4484 91.128 97.2018 90.1395 98.0742 89.2617C98.0592 89.3127 98.0412 89.3607 98.0262 89.4117C97.9542 89.6307 97.8852 89.8527 97.8162 90.0717C97.6782 90.5157 97.5372 90.9537 97.4052 91.3977C97.4052 91.4277 97.4412 91.4367 97.4532 91.3977C97.6092 90.9717 97.7532 90.5397 97.9122 90.1107C97.9842 89.8977 98.0592 89.6877 98.1342 89.4777C98.1732 89.3667 98.2092 89.2587 98.2452 89.1477L98.2812 89.0487C98.6993 88.6425 99.1432 88.2637 99.6102 87.9147C100.228 87.4608 100.895 87.0783 101.599 86.7747L101.563 86.9667C101.524 87.1377 101.488 87.3087 101.452 87.4797C101.377 87.8337 101.308 88.1907 101.239 88.5447C101.098 89.2707 101.011 90.0057 100.876 90.7287C100.876 90.7587 100.915 90.7707 100.921 90.7287C101.089 89.9997 101.305 89.2827 101.47 88.5507C101.551 88.1847 101.632 87.8217 101.707 87.4557C101.743 87.2817 101.779 87.1107 101.812 86.9397C101.833 86.8437 101.854 86.7507 101.866 86.6547C101.932 86.6277 102.001 86.5947 102.07 86.5707C103.051 86.2047 104.137 85.9407 105.187 86.1417C105.682 86.2337 106.146 86.4461 106.539 86.76C106.932 87.0739 107.241 87.4798 107.44 87.9417C107.476 88.0227 107.605 87.9717 107.584 87.8877C107.374 87.0207 106.624 86.3517 105.799 86.0067Z" fill="#263238"/>
<path d="M100.063 89.1L99.7481 90.525C99.6297 90.9805 99.5424 91.4436 99.4871 91.911C99.4871 91.929 99.5111 91.929 99.5171 91.911C99.6545 91.4537 99.7607 90.9877 99.8351 90.516C99.9281 90.045 100.018 89.577 100.111 89.109C100.112 89.1058 100.112 89.1026 100.111 89.0995C100.11 89.0963 100.109 89.0933 100.107 89.0907C100.105 89.0881 100.103 89.0858 100.1 89.084C100.098 89.0823 100.095 89.0811 100.092 89.0805C100.088 89.0799 100.085 89.0799 100.082 89.0806C100.079 89.0813 100.076 89.0825 100.073 89.0843C100.071 89.0862 100.068 89.0885 100.067 89.0912C100.065 89.0938 100.064 89.0968 100.063 89.1Z" fill="#263238"/>
<path d="M96.4391 90.2998C95.9621 90.5428 95.5001 90.8188 95.0021 91.0168C94.9986 91.0177 94.9954 91.0194 94.9927 91.0217C94.9899 91.024 94.9878 91.0269 94.9863 91.0301C94.9848 91.0334 94.9841 91.0369 94.9841 91.0405C94.9842 91.044 94.9851 91.0476 94.9867 91.0508C94.9883 91.054 94.9906 91.0568 94.9934 91.059C94.9962 91.0612 94.9995 91.0627 95.003 91.0635C95.0064 91.0642 95.0101 91.0642 95.0135 91.0634C95.017 91.0626 95.0203 91.061 95.0231 91.0588C95.512 90.8376 95.9887 90.5902 96.4511 90.3178C96.4511 90.3178 96.4511 90.2998 96.4391 90.2998Z" fill="#263238"/>
<path d="M105.622 80.7358C105.622 80.7358 101.041 81.0358 98.911 78.0088C96.781 74.9818 97.258 70.6768 97.258 70.6768C97.258 70.6768 102.058 71.2618 103.981 73.4308C105.904 75.5998 105.622 80.7358 105.622 80.7358Z" fill="#A855F7"/>
<path d="M107.77 85.2539C107.611 84.7649 107.416 84.2819 107.23 83.7989C107.044 83.3159 106.861 82.8809 106.66 82.4279C106.252 81.5039 105.794 80.6026 105.289 79.7279C104.965 79.1699 104.62 78.6299 104.263 78.0989C104.263 78.0179 104.239 77.9369 104.227 77.8529C104.206 77.7119 104.185 77.5709 104.161 77.4299C104.116 77.1299 104.065 76.8509 104.017 76.5599C103.912 75.9269 103.783 75.2999 103.681 74.6669C103.681 74.6369 103.63 74.6369 103.633 74.6669C103.726 75.2939 103.789 75.9209 103.876 76.5479C103.921 76.8479 103.96 77.1629 104.008 77.4689C104.008 77.5799 104.041 77.6909 104.059 77.8019C103.36 76.78 102.604 75.7984 101.794 74.8619L101.458 74.4869C101.446 74.4511 101.432 74.416 101.416 74.3819L101.317 74.1209L101.119 73.5749C100.99 73.2149 100.876 72.8549 100.777 72.4859C100.777 72.4559 100.726 72.4859 100.732 72.5009C100.825 72.8759 100.921 73.2509 101.032 73.6229C101.086 73.7999 101.143 73.9769 101.206 74.1539C101.206 74.1839 101.23 74.2139 101.239 74.2439C100.654 73.6049 100.039 72.9899 99.4392 72.3809C99.4182 72.3599 99.3852 72.3959 99.4062 72.4169C100.591 73.6543 101.677 74.9834 102.652 76.3919C102.541 76.3562 102.428 76.3272 102.313 76.3049C101.959 76.2359 101.605 76.1879 101.248 76.1429C100.501 76.0469 99.7482 75.9539 99.0162 75.8429C98.9862 75.8429 98.9742 75.8849 99.0162 75.8909C99.7242 76.0289 100.429 76.1909 101.134 76.3529C101.464 76.4279 101.8 76.4939 102.133 76.5599C102.406 76.6189 102.674 76.6951 102.937 76.7879L103.162 77.1059C103.498 77.5949 103.819 78.0929 104.137 78.6059L103.669 78.5159C103.315 78.4469 102.961 78.3809 102.604 78.3239C101.905 78.2069 101.206 78.0869 100.504 77.9309C100.5 77.9326 100.496 77.9356 100.493 77.9397C100.49 77.9437 100.489 77.9485 100.489 77.9534C100.489 77.9583 100.49 77.9631 100.493 77.9671C100.496 77.9711 100.5 77.9742 100.504 77.9759C101.206 78.1409 101.899 78.3329 102.604 78.5159C102.937 78.6059 103.276 78.6899 103.615 78.7619L104.125 78.8729C104.193 78.8916 104.262 78.9037 104.332 78.9089C104.998 79.9919 105.628 81.1049 106.21 82.2359C106.466 82.7339 106.712 83.2339 106.948 83.7359C107.194 84.2549 107.404 84.7859 107.629 85.3139C107.641 85.4129 107.8 85.3709 107.77 85.2539Z" fill="#263238"/>
<path d="M103.084 74.7301C102.997 74.2951 102.904 73.8571 102.808 73.4221C102.808 73.3921 102.757 73.4071 102.763 73.4221C102.847 73.8511 102.931 74.2801 103.009 74.7121C103.074 75.1443 103.161 75.5729 103.27 75.9961C103.239 75.5701 103.177 75.147 103.084 74.7301Z" fill="#263238"/>
<path d="M100.411 74.604C100.197 74.5 99.9778 74.4069 99.7542 74.325L99.4002 74.19L99.2232 74.118C99.1555 74.0994 99.0908 74.0711 99.0312 74.034C98.9952 74.007 98.9742 74.07 99.0072 74.076C99.0764 74.0931 99.143 74.1193 99.2052 74.154L99.3762 74.232L99.7122 74.382C99.9321 74.4834 100.157 74.5725 100.387 74.649C100.393 74.6522 100.4 74.6529 100.407 74.6509C100.413 74.649 100.419 74.6445 100.422 74.6385C100.425 74.6326 100.426 74.6256 100.424 74.6191C100.422 74.6126 100.417 74.6072 100.411 74.604Z" fill="#263238"/>
<path d="M110.308 77.1362C110.308 77.1362 113.08 71.9582 117.298 71.1572C121.516 70.3562 124.093 74.7002 124.093 74.7002C124.093 74.7002 121.018 78.6272 117.148 79.3142C113.278 80.0012 110.308 77.1362 110.308 77.1362Z" fill="#A855F7"/>
<path d="M120.124 73.4761C119.028 73.329 117.916 73.3432 116.824 73.5181C116.887 73.4821 116.95 73.4461 117.013 73.4161L117.949 72.9331C118.597 72.5971 119.251 72.2371 119.929 71.9671C119.933 71.9662 119.936 71.9646 119.939 71.9623C119.941 71.96 119.943 71.9571 119.945 71.9538C119.946 71.9506 119.947 71.947 119.947 71.9435C119.947 71.9399 119.946 71.9364 119.945 71.9332C119.943 71.93 119.941 71.9272 119.938 71.925C119.935 71.9228 119.932 71.9213 119.928 71.9205C119.925 71.9197 119.921 71.9197 119.918 71.9205C119.914 71.9213 119.911 71.9229 119.908 71.9251C119.248 72.2251 118.567 72.4891 117.904 72.7921C117.574 72.9451 117.247 73.0921 116.926 73.2751C116.719 73.3861 116.488 73.4881 116.284 73.6201C115.357 73.8114 114.457 74.1135 113.602 74.5201C113.779 74.3281 113.956 74.1391 114.13 73.9471C114.523 73.5151 114.91 73.0651 115.33 72.6721C115.351 72.6511 115.33 72.6181 115.294 72.6391C114.853 73.0411 114.394 73.4101 113.959 73.8391C113.752 74.0431 113.554 74.2501 113.359 74.4661C113.263 74.5741 113.167 74.6851 113.074 74.7991C111.626 75.5743 110.367 76.6612 109.39 77.9815C108.413 79.3018 107.741 80.8226 107.422 82.4341C107.422 82.4641 107.458 82.4791 107.467 82.4491C108.06 80.4758 109.123 78.6761 110.566 77.2051C112.118 75.623 114.07 74.4926 116.215 73.9351C117.488 73.6108 118.805 73.4914 120.115 73.5811C120.129 73.5823 120.143 73.578 120.154 73.569C120.164 73.56 120.171 73.5471 120.172 73.5331C120.173 73.5192 120.169 73.5054 120.16 73.4947C120.151 73.484 120.138 73.4773 120.124 73.4761Z" fill="#263238"/>
<path opacity="0.1" d="M124.096 74.7001C124.096 74.7001 121.018 78.6271 117.148 79.3141C114.196 79.8361 111.769 78.2971 110.782 77.5381L110.569 77.1901C110.569 77.1901 112.567 75.5071 116.341 74.5351C120.115 73.5631 124.096 74.7001 124.096 74.7001Z" fill="black"/>
<path d="M117.673 71.6307C117.351 71.8209 117.039 72.0272 116.737 72.2487C116.444 72.4719 116.172 72.7209 115.924 72.9927C115.922 72.9977 115.921 73.0034 115.922 73.0089C115.923 73.0144 115.925 73.0195 115.929 73.0234C115.933 73.0274 115.938 73.03 115.944 73.031C115.949 73.0319 115.955 73.0311 115.96 73.0287C116.239 72.7857 116.521 72.5427 116.812 72.3117C117.098 72.0793 117.398 71.8658 117.712 71.6727C117.718 71.6675 117.721 71.6604 117.721 71.6528C117.721 71.6452 117.719 71.6378 117.714 71.6322C117.708 71.6266 117.701 71.6233 117.694 71.6231C117.686 71.6228 117.679 71.6255 117.673 71.6307Z" fill="#263238"/>
<path d="M119.989 72.5068C119.833 72.5728 119.671 72.6298 119.515 72.6928L119.047 72.8878C119.014 72.8878 119.029 72.9568 119.062 72.9448L119.533 72.7528C119.692 72.6898 119.833 72.6178 120.001 72.5518C120.031 72.5428 120.016 72.4948 119.989 72.5068Z" fill="#263238"/>
<path d="M109.756 83.6519C109.756 83.6519 110.5 88.7999 114.358 90.5819C118.216 92.3639 122.929 90.5819 122.929 90.5819C122.929 90.5819 121.075 79.4729 109.756 83.6519Z" fill="#A855F7"/>
<path d="M120.268 87.2427C119.911 87.2007 119.557 87.1407 119.203 87.0777L118.684 86.9787C118.597 86.9607 118.507 86.9397 118.414 86.9247L118.114 86.6247C117.382 85.9828 116.591 85.4103 115.753 84.9147C115.296 84.6439 114.823 84.4005 114.337 84.1857H114.4L115.672 84.2427C116.518 84.2817 117.367 84.2997 118.213 84.3537C118.243 84.3537 118.243 84.3087 118.213 84.3057C117.361 84.2487 116.515 84.1557 115.666 84.0837L114.43 83.9997L113.794 83.9457L113.629 83.9277C113.41 83.8437 113.188 83.7687 112.963 83.6967C111.91 83.3365 110.779 83.2742 109.693 83.5167C108.721 83.7657 107.752 84.4167 107.5 85.4277C107.5 85.4637 107.545 85.4877 107.56 85.4517C107.923 84.5937 108.874 84.1647 109.732 83.9877C110.309 83.8768 110.9 83.8646 111.481 83.9517C111.519 84.2167 111.585 84.477 111.676 84.7287C111.781 85.0887 111.886 85.4517 111.997 85.8117C112.216 86.5347 112.456 87.2487 112.669 87.9717C112.672 87.9768 112.676 87.9808 112.681 87.983C112.687 87.9851 112.692 87.9853 112.698 87.9835C112.703 87.9817 112.708 87.978 112.711 87.9731C112.714 87.9682 112.715 87.9624 112.714 87.9567C112.537 87.2367 112.384 86.5077 112.21 85.7877C112.126 85.4307 112.036 85.0797 111.949 84.7257C111.898 84.4781 111.833 84.2337 111.754 83.9937C112.092 84.0543 112.427 84.1334 112.756 84.2307C113.352 84.4062 113.937 84.6207 114.505 84.8727C114.562 85.2387 114.646 85.6017 114.73 85.9617C114.835 86.4147 114.952 86.8617 115.096 87.3087C115.098 87.3143 115.102 87.3188 115.107 87.3214C115.113 87.3239 115.119 87.3242 115.125 87.3222C115.13 87.3202 115.135 87.3161 115.137 87.3108C115.14 87.3054 115.14 87.2993 115.138 87.2937C115.136 87.2657 115.136 87.2377 115.138 87.2097C115.051 86.7897 114.961 86.3697 114.871 85.9497C114.799 85.6137 114.733 85.2717 114.661 84.9357C115.142 85.1496 115.611 85.3879 116.068 85.6497C116.068 85.7517 116.104 85.8597 116.119 85.9497C116.146 86.1267 116.179 86.3007 116.209 86.4777C116.284 86.8737 116.362 87.2667 116.458 87.6597C116.631 88.4172 116.852 89.1627 117.121 89.8917C117.118 89.896 117.116 89.9013 117.116 89.9067C117.116 89.9122 117.118 89.9175 117.121 89.9217L117.142 89.9487C117.146 89.9521 117.151 89.9541 117.156 89.9545C117.161 89.9549 117.166 89.9537 117.17 89.951C117.175 89.9484 117.178 89.9444 117.18 89.9396C117.182 89.9349 117.182 89.9297 117.181 89.9247C117.004 89.1627 116.8 88.4067 116.632 87.6447C116.548 87.2637 116.464 86.8827 116.389 86.4987C116.35 86.3067 116.314 86.1147 116.278 85.9227C116.278 85.8687 116.269 85.8117 116.251 85.7517C116.769 86.0583 117.27 86.3928 117.751 86.7537C118.583 87.3793 119.353 88.0824 120.052 88.8537C120.079 88.8837 120.133 88.8537 120.109 88.8057C119.809 88.4187 119.509 88.0407 119.188 87.6837C118.993 87.4767 118.792 87.2757 118.588 87.0837H118.654C118.834 87.1137 119.014 87.1407 119.197 87.1647C119.554 87.2127 119.914 87.2487 120.271 87.2877C120.286 87.2997 120.298 87.2457 120.268 87.2427Z" fill="#263238"/>
<path d="M117.553 88.9831C117.553 88.9381 117.553 88.8962 117.532 88.8512C117.511 88.8062 117.493 88.7401 117.484 88.6831C117.403 88.3411 117.337 87.9962 117.274 87.6482C117.274 87.6242 117.232 87.6302 117.232 87.6482C117.259 88.1084 117.361 88.5612 117.532 88.9892C117.532 89.0042 117.562 88.9892 117.559 88.9892L117.553 88.9831Z" fill="#263238"/>
<path d="M114.322 88.9018C114.321 88.896 114.319 88.8906 114.314 88.8868C114.31 88.8829 114.304 88.8808 114.298 88.8808C114.19 88.4248 114.085 87.9808 113.998 87.5128C113.947 87.2698 113.899 87.0298 113.851 86.7898L113.779 86.3998C113.769 86.2844 113.742 86.1711 113.698 86.0638C113.696 86.0601 113.692 86.0571 113.688 86.055C113.684 86.0529 113.68 86.0518 113.676 86.0518C113.671 86.0518 113.667 86.0529 113.663 86.055C113.659 86.0571 113.656 86.0601 113.653 86.0638C113.649 86.2964 113.682 86.5282 113.749 86.7508C113.797 87.0028 113.845 87.2518 113.902 87.5008C114.013 88.0078 114.139 88.5148 114.283 89.0008C114.283 89.0278 114.337 89.0218 114.334 89.0008C114.331 88.9798 114.325 88.9378 114.322 88.9018Z" fill="#263238"/>
<path d="M119.914 85.764C119.209 85.668 118.504 85.566 117.799 85.479C117.769 85.479 117.757 85.521 117.799 85.524C118.504 85.629 119.209 85.716 119.917 85.809C119.932 85.8 119.944 85.767 119.914 85.764Z" fill="#263238"/>
<path d="M107.776 71.6069C107.776 71.6069 105.415 61.2389 116.554 57.0449C116.554 57.0449 119.641 70.6919 107.776 71.6069Z" fill="#A855F7"/>
<path d="M110.182 65.7268L110.302 65.6548L110.932 65.3038L112.222 64.5808C113.074 64.1038 113.911 63.6088 114.769 63.1438C114.796 63.1438 114.769 63.0898 114.742 63.1048C113.887 63.5698 113.014 64.0048 112.15 64.4638L110.875 65.1388L110.353 65.4118C110.725 64.7098 111.121 64.0168 111.553 63.3508C112.135 62.4508 112.774 61.6168 113.437 60.7918C113.442 60.7843 113.444 60.7754 113.443 60.7665C113.442 60.7575 113.438 60.7492 113.432 60.7429C113.426 60.7365 113.417 60.7326 113.408 60.7316C113.399 60.7307 113.39 60.7329 113.383 60.7378C112.402 61.6883 111.536 62.7494 110.8 63.8998C110.8 63.8608 110.8 63.8248 110.8 63.7918C110.8 63.5338 110.818 63.2758 110.821 63.0178C110.821 62.5108 110.806 62.0038 110.821 61.4998C110.821 61.4935 110.818 61.4874 110.814 61.4829C110.809 61.4784 110.803 61.4758 110.797 61.4758C110.791 61.4758 110.785 61.4784 110.78 61.4829C110.776 61.4874 110.773 61.4935 110.773 61.4998C110.752 61.9978 110.692 62.4928 110.665 62.9998C110.665 63.2488 110.638 63.4978 110.632 63.7468C110.632 63.8818 110.614 64.0468 110.632 64.1818C110.401 64.5448 110.182 64.9168 109.975 65.2918C109.601 65.9709 109.268 66.6722 108.979 67.3918C108.979 67.1338 108.952 66.8758 108.937 66.6178C108.904 66.0508 108.835 65.4838 108.811 64.9168C108.811 64.8868 108.763 64.8868 108.763 64.9168C108.763 65.4868 108.748 66.0538 108.763 66.6208C108.763 66.9058 108.781 67.1878 108.799 67.4728L108.817 67.7728C108.463 68.6996 108.183 69.6525 107.977 70.6228C107.785 71.659 107.647 72.7044 107.563 73.7548C107.682 72.8082 107.882 71.8737 108.163 70.9618C108.301 70.4728 108.445 69.9868 108.601 69.5038C109.066 69.2848 109.501 69.0118 109.957 68.7628L111.355 68.0008C112.282 67.4908 113.212 66.9718 114.169 66.5218C114.199 66.5068 114.169 66.4678 114.145 66.4798C113.173 66.9208 112.195 67.3378 111.241 67.8178C110.767 68.0548 110.299 68.3098 109.837 68.5708C109.45 68.7898 109.054 69.0088 108.685 69.2578C108.793 68.9368 108.904 68.6128 109.027 68.2978C109.368 67.4217 109.753 66.5636 110.182 65.7268Z" fill="#263238"/>
<path d="M109.243 63.357C109.243 63.327 109.192 63.327 109.195 63.357C109.234 63.957 109.255 64.542 109.318 65.13C109.318 65.163 109.372 65.163 109.369 65.13C109.351 64.536 109.3 63.948 109.243 63.357Z" fill="#263238"/>
<path d="M114.583 65.337C113.887 65.616 113.182 65.883 112.483 66.174C112.465 66.174 112.483 66.213 112.483 66.207C113.188 65.943 113.881 65.655 114.583 65.382C114.625 65.37 114.613 65.325 114.583 65.337Z" fill="#263238"/>
<path d="M115.642 60.555C114.961 60.8678 114.3 61.2225 113.662 61.617C113.629 61.638 113.662 61.689 113.692 61.668C114.337 61.29 114.997 60.927 115.666 60.597C115.696 60.582 115.669 60.543 115.642 60.555Z" fill="#263238"/>
<path d="M115.474 94.0259H99.4092V110.958H115.474V94.0259Z" fill="#37474F"/>
<path d="M99.1272 100.017H98.3052V129.021H99.1272V100.017Z" fill="#263238"/>
<path d="M116.494 100.017H115.672V129.021H116.494V100.017Z" fill="#263238"/>
<path d="M108.247 100.017H107.425V129.021H108.247V100.017Z" fill="#263238"/>
<path d="M116.083 109.872H98.7161V112.215H116.083V109.872Z" fill="#263238"/>
<path d="M140.86 106.38H115.735V107.568H140.86V106.38Z" fill="#A855F7"/>
<path opacity="0.3" d="M140.86 106.38H115.735V107.568H140.86V106.38Z" fill="black"/>
<path d="M110.257 134.826H115.51L131.263 20.1387L129.43 20.3187L110.257 134.826Z" fill="#A855F7"/>
<path opacity="0.3" d="M110.257 134.826H115.51L131.263 20.1387L129.43 20.3187L110.257 134.826Z" fill="black"/>
<path d="M127.576 86.7779H131.863L137.014 11.8589L135.481 12.0239L127.576 86.7779Z" fill="#A855F7"/>
<path opacity="0.3" d="M127.576 86.7779H131.863L137.014 11.8589L135.481 12.0239L127.576 86.7779Z" fill="black"/>
<path d="M139.258 134.826H144.391L141.529 19.002L139.729 19.182L139.258 134.826Z" fill="#A855F7"/>
<g opacity="0.3">
<path d="M139.258 134.826H144.391L141.529 19.002L139.729 19.182L139.258 134.826Z" fill="black"/>
</g>
<path opacity="0.3" d="M122.587 83.3008L122.341 85.1008H118.582L118.885 83.3008H122.587Z" fill="black"/>
<path opacity="0.3" d="M132.103 83.3008L131.986 85.1008H127.753L127.945 83.3008H132.103Z" fill="black"/>
<path opacity="0.3" d="M143.164 85.1008H139.462L139.468 83.3008H143.119L143.164 85.1008Z" fill="black"/>
<path d="M148.138 45.1167V54.1797L162.598 126.018H166.738L148.138 45.1167Z" fill="#A855F7"/>
<g opacity="0.3">
<path d="M148.138 45.1167V54.1797L162.598 126.018H166.738L148.138 45.1167Z" fill="black"/>
</g>
<path opacity="0.3" d="M154.525 72.8847L153.655 81.5847L148.138 54.1797V45.1167L154.525 72.8847Z" fill="black"/>
<path d="M151.126 81.15H111.262L117.265 28.3979H152.485L151.126 81.15Z" fill="white"/>
<path d="M151.273 81.3H111.1L117.133 28.248H152.638V28.404L151.273 81.3ZM111.43 81H150.979L152.329 28.548H117.4L111.43 81Z" fill="#E9E9E9"/>
<path d="M152.668 28.2271L154.114 30.7471L153.124 81.15H151.249L152.668 28.2271Z" fill="#DBDBDB"/>
<path d="M109.189 83.5259H155.02L154.72 81.1499H109.489L109.189 83.5259Z" fill="#A855F7"/>
<path opacity="0.3" d="M109.189 83.5259H155.02L154.72 81.1499H109.489L109.189 83.5259Z" fill="black"/>
<path d="M123.583 28.7041H147.214L146.914 26.3281H123.883L123.583 28.7041Z" fill="#A855F7"/>
<path opacity="0.3" d="M123.583 28.7041H147.214L146.914 26.3281H123.883L123.583 28.7041Z" fill="black"/>
<path d="M101.863 136.572C101.194 136.782 82.1742 136.374 81.4632 135.9C81.1932 135.723 81.0912 132.948 81.0642 129.6C81.0642 128.874 81.0642 128.13 81.0642 127.368C81.0642 126.468 81.0642 125.568 81.0822 124.668C81.1332 120.696 81.2532 117.198 81.2532 117.198L93.6342 117.429L93.4902 124.899L93.4362 127.599L93.3312 129.831C93.3312 129.831 100.531 133.245 101.272 133.848C102.013 134.451 102.532 136.368 101.863 136.572Z" fill="#FFC4C0"/>
<path d="M101.863 136.572C101.194 136.782 82.1742 136.374 81.4632 135.9C81.1932 135.723 81.0912 132.948 81.0642 129.6C81.0642 128.874 81.0642 128.13 81.0642 127.368C81.0642 126.468 81.0642 125.568 81.0822 124.668L93.4902 124.899L93.4362 127.599L93.3312 129.831C93.3312 129.831 100.531 133.245 101.272 133.848C102.013 134.451 102.532 136.368 101.863 136.572Z" fill="white"/>
<path d="M101.92 136.602C101.485 136.737 93.3821 136.617 87.4871 136.383C86.1221 136.329 84.8741 136.269 83.8691 136.206C82.4801 136.116 81.5531 136.023 81.4031 135.924C81.0701 135.705 80.9861 131.634 80.9891 127.338L93.4331 127.569L93.3281 129.813C93.3281 129.813 100.579 133.245 101.314 133.851C102.049 134.457 102.592 136.389 101.92 136.602Z" fill="#A855F7"/>
<path d="M101.662 135.831C98.458 135.684 85.522 135.393 82.342 135.489C82.315 135.489 82.315 135.507 82.342 135.51C85.516 135.726 98.455 135.912 101.662 135.885C101.728 135.882 101.731 135.834 101.662 135.831Z" fill="#263238"/>
<path d="M93.796 129.111C92.539 128.847 90.994 129.009 90.01 129.885C89.971 129.921 90.01 129.975 90.061 129.963C91.2746 129.599 92.5237 129.367 93.787 129.27C93.8058 129.267 93.8231 129.259 93.836 129.245C93.8488 129.231 93.8565 129.213 93.8576 129.194C93.8586 129.175 93.8531 129.157 93.8418 129.141C93.8306 129.126 93.8144 129.115 93.796 129.111Z" fill="#263238"/>
<path d="M94.6961 129.678C93.4391 129.414 91.8911 129.576 90.9071 130.455C90.8711 130.488 90.9071 130.542 90.9611 130.53C92.1746 130.165 93.4238 129.933 94.6871 129.837C94.7058 129.834 94.7231 129.825 94.736 129.812C94.7489 129.798 94.7565 129.78 94.7576 129.761C94.7587 129.742 94.7531 129.723 94.7419 129.708C94.7306 129.693 94.7144 129.682 94.6961 129.678Z" fill="#263238"/>
<path d="M95.5931 130.245C94.3361 129.984 92.7911 130.143 91.8071 131.022C91.7681 131.058 91.8071 131.109 91.8581 131.097C93.0733 130.735 94.3232 130.503 95.5871 130.404C95.6057 130.401 95.6228 130.392 95.6353 130.378C95.6479 130.364 95.6551 130.346 95.6559 130.327C95.6566 130.308 95.6507 130.289 95.6392 130.274C95.6278 130.259 95.6115 130.249 95.5931 130.245Z" fill="#263238"/>
<path d="M96.493 130.815C95.236 130.551 93.688 130.713 92.707 131.592C92.668 131.625 92.707 131.679 92.758 131.667C93.9716 131.303 95.2208 131.071 96.484 130.974C96.5028 130.971 96.5201 130.963 96.533 130.949C96.5459 130.935 96.5535 130.917 96.5546 130.898C96.5556 130.879 96.5501 130.861 96.5388 130.845C96.5276 130.83 96.5114 130.819 96.493 130.815Z" fill="#263238"/>
<path d="M96.1901 126.243C95.7071 125.55 94.7771 125.835 94.2431 126.267C93.3354 127.024 92.6431 128.007 92.2361 129.117C92.2361 129.141 92.2361 129.156 92.2661 129.162C92.2643 129.186 92.2685 129.211 92.2782 129.234C92.2879 129.257 92.3029 129.277 92.322 129.293C92.3411 129.309 92.3636 129.32 92.3878 129.325C92.412 129.33 92.4371 129.33 92.4611 129.324C93.5111 128.961 94.6781 128.703 95.5841 128.028C96.1151 127.632 96.6431 126.9 96.1901 126.243ZM93.9401 128.448C93.4271 128.637 92.9081 128.802 92.4041 129.012C92.7762 128.447 93.1767 127.901 93.6041 127.377C93.815 127.125 94.0436 126.888 94.2881 126.669C94.6691 126.333 96.1721 125.64 95.9201 127.017C95.8001 127.779 94.5491 128.22 93.9401 128.448Z" fill="#263238"/>
<path d="M89.0381 128.718C90.0671 129.183 91.2641 129.186 92.3681 129.318C92.3928 129.318 92.4173 129.313 92.4395 129.302C92.4618 129.292 92.4813 129.276 92.4964 129.257C92.5115 129.237 92.5219 129.214 92.5267 129.19C92.5316 129.166 92.5307 129.141 92.5241 129.117C92.5289 129.115 92.5332 129.112 92.5367 129.109C92.5403 129.105 92.543 129.1 92.5447 129.096C92.5464 129.091 92.547 129.086 92.5466 129.081C92.5462 129.075 92.5446 129.07 92.5421 129.066C91.9068 128.07 91.0213 127.258 89.9741 126.711C89.3591 126.411 88.3871 126.324 88.0661 127.104C87.7451 127.884 88.4351 128.445 89.0381 128.718ZM88.4861 127.818C87.9461 126.525 89.5631 126.882 90.0071 127.125C90.2912 127.29 90.5647 127.472 90.8261 127.671C91.3589 128.092 91.8696 128.541 92.3561 129.015C91.8191 128.916 91.2761 128.865 90.7361 128.787C90.1001 128.7 88.7861 128.52 88.4861 127.8V127.818Z" fill="#263238"/>
<path opacity="0.2" d="M92.2 136.533C90.601 136.494 88.981 136.44 87.499 136.383C86.137 136.332 84.889 136.269 83.884 136.206C82.498 136.116 81.565 136.026 81.418 135.924C81.118 135.732 81.025 132.585 81.01 128.922C83.818 130.8 89.365 134.601 92.2 136.533Z" fill="black"/>
<path d="M94.543 129.666H80.413C80.413 129.666 81.187 90.9659 81.034 90.2339C80.671 88.4639 72.634 60.4199 72.634 60.4199L83.794 60.6119L86.923 60.6809C86.923 60.6809 87.274 65.3489 87.409 65.8439C89.272 72.6479 92.914 84.2639 93.655 88.5719C94.942 96.0509 94.543 129.666 94.543 129.666Z" fill="#263238"/>
<path d="M94.0842 127.305C91.8822 127.248 84.0732 127.005 81.1332 127.236C81.1122 127.236 81.1122 127.275 81.1332 127.278C82.1412 127.443 91.8792 127.395 94.0842 127.365C94.0881 127.365 94.092 127.364 94.0957 127.363C94.0993 127.361 94.1026 127.359 94.1054 127.356C94.1082 127.353 94.1104 127.35 94.1119 127.347C94.1134 127.343 94.1142 127.339 94.1142 127.335C94.1142 127.331 94.1134 127.327 94.1119 127.324C94.1104 127.32 94.1082 127.317 94.1054 127.314C94.1026 127.311 94.0993 127.309 94.0957 127.307C94.092 127.306 94.0881 127.305 94.0842 127.305Z" fill="#37474F"/>
<path d="M82.1442 89.5466C81.7212 87.8276 78.5742 77.1147 77.6112 73.7307C76.6482 70.3467 75.7452 66.9507 74.9112 63.5307C74.8062 63.0987 74.7012 62.6667 74.5842 62.2347C74.5842 62.1987 74.5242 62.2167 74.5302 62.2347C74.8482 63.9567 75.2682 65.6607 75.6702 67.3617C76.0722 69.0627 76.5072 70.7607 76.9602 72.4616C77.8722 75.8616 78.8672 79.2337 79.9452 82.5777C80.4852 84.2457 81.3732 87.6777 81.8472 89.3606C82.3212 91.0436 81.5472 125.631 81.5952 126.078C81.5993 126.101 81.6116 126.123 81.63 126.138C81.6484 126.154 81.6717 126.162 81.6957 126.162C81.7197 126.162 81.743 126.154 81.7614 126.138C81.7798 126.123 81.7921 126.101 81.7962 126.078C81.8622 122.823 82.5612 91.2446 82.1442 89.5466Z" fill="#37474F"/>
<path d="M83.8001 60.6266C83.8001 60.6266 81.0731 90.3926 81.0401 90.2486C80.6891 88.5356 73.1351 62.1626 72.6611 60.5156C72.6611 60.4616 72.6401 60.4346 72.6401 60.4346L83.8001 60.6266Z" fill="#37474F"/>
<path d="M86.8481 138.204C86.1761 138.411 67.1561 138.003 66.4481 137.532C66.1781 137.355 66.0731 134.577 66.0461 131.232C66.0461 130.509 66.0461 129.762 66.0461 129C66.0461 128.1 66.0461 127.2 66.0641 126.3C66.1151 122.325 66.5231 118.83 66.5231 118.83L78.6161 119.058L78.4721 126.528L78.4211 129.228L78.3161 131.46C78.3161 131.46 85.5161 134.874 86.2541 135.48C86.9921 136.086 87.5141 138 86.8481 138.204Z" fill="#FFC4C0"/>
<path d="M86.8481 138.204C86.1761 138.411 67.1561 138.003 66.4481 137.532C66.1781 137.355 66.0731 134.577 66.0461 131.232C66.0461 130.509 66.0461 129.762 66.0461 129C66.0461 128.1 66.0461 127.2 66.0641 126.3L78.4721 126.528L78.4211 129.228L78.3161 131.46C78.3161 131.46 85.5161 134.874 86.2541 135.48C86.9921 136.086 87.5141 138 86.8481 138.204Z" fill="white"/>
<path d="M86.9052 138.231C86.4672 138.366 78.3672 138.246 72.4692 138.015C71.1042 137.961 69.8562 137.898 68.8512 137.838C67.4652 137.748 66.5352 137.655 66.3852 137.556C66.0552 137.334 65.9682 133.263 65.9742 128.97L78.4182 129.198L78.3102 131.442C78.3102 131.442 85.5642 134.874 86.2962 135.483C87.0282 136.092 87.5742 138.021 86.9052 138.231Z" fill="#A855F7"/>
<path d="M86.6472 137.46C83.4402 137.313 70.5042 137.022 67.3242 137.121C67.3002 137.121 67.3002 137.139 67.3242 137.139C70.4982 137.355 83.4371 137.544 86.6441 137.514C86.7131 137.514 86.7132 137.466 86.6472 137.46Z" fill="#263238"/>
<path d="M78.7782 130.74C77.5242 130.476 75.9762 130.638 74.9922 131.517C74.9532 131.55 74.9922 131.604 75.0432 131.592C76.2577 131.227 77.5079 130.995 78.7722 130.899C78.7908 130.896 78.8079 130.887 78.8204 130.873C78.833 130.859 78.8402 130.841 78.8409 130.822C78.8416 130.803 78.8357 130.784 78.8243 130.769C78.8128 130.754 78.7965 130.744 78.7782 130.74Z" fill="#263238"/>
<path d="M79.6781 131.307C78.4211 131.046 76.8731 131.205 75.8921 132.084C75.8531 132.117 75.8921 132.171 75.9431 132.159C77.157 131.796 78.406 131.564 79.6691 131.466C79.6878 131.463 79.7052 131.454 79.718 131.441C79.7309 131.427 79.7386 131.409 79.7396 131.39C79.7407 131.371 79.7351 131.352 79.7239 131.337C79.7127 131.322 79.6964 131.311 79.6781 131.307Z" fill="#263238"/>
<path d="M80.5781 131.877C79.3211 131.613 77.7731 131.775 76.7891 132.654C76.7531 132.687 76.7891 132.741 76.8431 132.729C78.0566 132.365 79.3059 132.132 80.5691 132.036C80.5879 132.033 80.6052 132.025 80.6181 132.011C80.631 131.997 80.6386 131.979 80.6397 131.96C80.6408 131.941 80.6352 131.923 80.624 131.907C80.6127 131.892 80.5965 131.881 80.5781 131.877Z" fill="#263238"/>
<path d="M81.4752 132.444C80.2182 132.183 78.6732 132.342 77.6892 133.221C77.6502 133.254 77.6892 133.308 77.7402 133.296C78.954 132.932 80.203 132.699 81.4662 132.6C81.4836 132.596 81.4993 132.587 81.5108 132.573C81.5224 132.56 81.5292 132.543 81.5302 132.525C81.5313 132.508 81.5264 132.49 81.5165 132.475C81.5065 132.461 81.492 132.45 81.4752 132.444Z" fill="#263238"/>
<path d="M81.1721 127.872C80.6921 127.179 79.7621 127.467 79.2251 127.896C78.3181 128.653 77.6269 129.636 77.2211 130.746C77.2184 130.75 77.217 130.756 77.217 130.761C77.2171 130.766 77.2186 130.772 77.2213 130.776C77.2241 130.781 77.228 130.785 77.2327 130.787C77.2374 130.79 77.2427 130.791 77.2481 130.791C77.2481 130.887 77.3351 130.992 77.4431 130.953C78.4931 130.59 79.6601 130.332 80.5691 129.657C81.1001 129.264 81.6281 128.529 81.1721 127.872ZM78.9221 130.077C78.4091 130.269 77.8931 130.434 77.3861 130.644C77.7574 130.077 78.1579 129.531 78.5861 129.006C78.797 128.754 79.0256 128.517 79.2701 128.298C79.6511 127.965 81.1541 127.269 80.9021 128.649C80.7731 129.408 79.5341 129.849 78.9221 130.077Z" fill="#263238"/>
<path d="M74.0202 130.347C75.0522 130.812 76.2462 130.815 77.3502 130.947C77.4642 130.962 77.5242 130.842 77.5062 130.746C77.5113 130.745 77.516 130.742 77.5199 130.738C77.5238 130.735 77.5267 130.73 77.5285 130.725C77.5302 130.72 77.5308 130.715 77.53 130.71C77.5293 130.704 77.5273 130.699 77.5242 130.695C76.8895 129.699 76.0038 128.888 74.9562 128.343C74.3562 128.043 73.3722 127.953 73.0482 128.733C72.7242 129.513 73.4202 130.077 74.0202 130.347ZM73.4712 129.447C72.9282 128.154 74.5452 128.511 74.9892 128.757C75.275 128.919 75.5487 129.102 75.8082 129.303C76.3416 129.723 76.8524 130.17 77.3382 130.644C76.8012 130.545 76.2582 130.497 75.7182 130.419C75.0732 130.314 73.7682 130.149 73.4712 129.435V129.447Z" fill="#263238"/>
<path d="M79.135 131.1L65.425 130.848C65.425 130.848 68.971 74.5556 68.8 71.8976C68.584 68.6396 68.683 62.7116 70.747 60.3896L84.1061 60.6356C84.1061 60.6356 83.752 64.9676 83.317 66.3356C83.317 66.3356 81.6131 67.3676 80.9981 67.7066L79.135 131.1Z" fill="#263238"/>
<path d="M78.7572 128.673C76.6782 128.58 77.2782 128.577 75.1962 128.508C74.1792 128.472 67.4892 128.256 66.5352 128.391C66.5296 128.391 66.5243 128.393 66.5203 128.397C66.5164 128.401 66.5142 128.406 66.5142 128.412C66.5142 128.417 66.5164 128.423 66.5203 128.426C66.5243 128.43 66.5296 128.433 66.5352 128.433C67.4832 128.613 74.1732 128.715 75.1902 128.733C77.2722 128.76 76.6902 128.733 78.7572 128.733C78.7651 128.733 78.7727 128.729 78.7784 128.724C78.784 128.718 78.7872 128.711 78.7872 128.703C78.7872 128.695 78.784 128.687 78.7784 128.681C78.7727 128.676 78.7651 128.673 78.7572 128.673Z" fill="#37474F"/>
<path d="M83.722 66.0178C82.3982 66.628 81.1286 67.3496 79.927 68.1748C79.9171 68.1804 79.9097 68.1897 79.9066 68.2006C79.9035 68.2116 79.9049 68.2234 79.9105 68.2333C79.9161 68.2433 79.9254 68.2506 79.9363 68.2537C79.9473 68.2568 79.9591 68.2554 79.969 68.2498C81.253 67.5718 82.567 66.9118 83.809 66.1648C83.908 66.1078 83.824 65.9728 83.722 66.0178Z" fill="#37474F"/>
<path d="M82.0242 65.796C81.9409 66.0532 81.8758 66.3158 81.8292 66.582C81.7705 66.7886 81.7532 67.0048 81.7782 67.218C81.7782 67.257 81.8412 67.257 81.8622 67.218C81.9667 67.0182 82.0405 66.8038 82.0812 66.582C82.1502 66.339 82.2222 66.096 82.2852 65.85C82.3242 65.7 82.0782 65.637 82.0242 65.796Z" fill="#37474F"/>
<path d="M81.9282 64.4999C81.9702 64.2779 82.0092 64.0559 82.0542 63.8339C82.0992 63.6119 82.1622 63.3749 82.1892 63.1439C82.1892 63.1079 82.2522 63.1169 82.2462 63.1439C82.2072 63.3659 82.1982 63.5969 82.1772 63.8219C82.1562 64.0469 82.1292 64.2749 82.1022 64.4999C82.0512 64.9199 81.9732 65.3429 81.8802 65.7569C82.1018 65.7231 82.3129 65.64 82.4982 65.5139C82.6768 65.3423 82.7965 65.1186 82.8402 64.8749C82.9122 64.6229 82.9722 64.3649 83.0442 64.1129C83.1401 63.8357 83.2114 63.5506 83.2572 63.2609C83.2572 63.2249 83.3172 63.2369 83.3142 63.2609C83.2495 63.8719 83.1239 64.4749 82.9392 65.0609C82.9009 65.2961 82.7783 65.5094 82.5942 65.6609C82.3604 65.7818 82.1039 65.8523 81.8412 65.8679C81.8112 65.8829 81.7662 65.8679 81.7692 65.8319C81.8052 65.3999 81.8502 64.9439 81.9282 64.4999Z" fill="#37474F"/>
<path d="M70.9692 71.7656C70.8912 70.7816 70.7502 69.8036 70.6692 68.8226C70.5053 66.8523 70.6623 64.8685 71.1342 62.9486C71.1347 62.9416 71.1327 62.9347 71.1287 62.929C71.1246 62.9233 71.1187 62.9193 71.1119 62.9175C71.1052 62.9157 71.098 62.9163 71.0917 62.9193C71.0853 62.9222 71.0802 62.9273 71.0772 62.9336C70.7202 64.6346 70.4052 66.3386 70.4592 68.0846C70.5132 69.8306 70.7862 71.5316 70.7802 73.2686C70.7742 75.0056 70.6062 76.7816 70.4622 78.5306L70.0242 83.8166C69.4242 90.8966 68.8842 104.862 68.3202 111.945C68.1642 113.923 68.0122 115.9 67.8642 117.876C67.7112 119.889 67.4772 124.851 67.3662 126.876C67.3662 127.05 67.6152 127.041 67.6332 126.876C68.0022 123.327 68.2962 116.808 68.5902 113.25C68.8842 109.692 69.1512 106.203 69.4302 102.681C69.7092 99.1586 69.9882 88.7516 70.2642 85.2266C70.4022 83.4646 70.5362 81.7036 70.6662 79.9436C70.8012 78.1886 70.9662 76.4336 71.0232 74.6756C71.0582 73.7053 71.0401 72.7339 70.9692 71.7656Z" fill="#37474F"/>
<path d="M75.8651 62.9129C75.8626 62.9078 75.8588 62.9036 75.854 62.9006C75.8492 62.8976 75.8437 62.896 75.8381 62.896C75.8324 62.896 75.8269 62.8976 75.8221 62.9006C75.8174 62.9036 75.8135 62.9078 75.8111 62.9129C75.7267 63.1429 75.6801 63.385 75.6731 63.6299C75.6283 63.8929 75.5621 64.1518 75.4751 64.4039C75.3194 64.9132 75.0341 65.3732 74.6471 65.7389C73.7921 66.5099 72.6611 66.7799 71.5721 67.0259C71.5301 67.0259 71.5451 67.0889 71.5721 67.0919C72.2151 67.1314 72.8596 67.0427 73.4681 66.8309C74.0112 66.6751 74.5152 66.4062 74.9471 66.0419C75.3563 65.664 75.6401 65.1699 75.7601 64.6259C75.8231 64.342 75.8593 64.0527 75.8681 63.7619C75.8681 63.6239 75.8681 63.4829 75.8681 63.3449C75.895 63.2021 75.894 63.0554 75.8651 62.9129Z" fill="#37474F"/>
<path d="M78.2981 25.6109C79.4711 24.7319 82.3931 24.2939 84.2561 26.2439C87.0401 29.1629 85.5701 38.6159 84.8831 39.9299C84.8831 39.9299 78.4301 41.2319 73.0691 38.0399C73.0691 38.0399 76.3181 31.7939 76.9031 28.6469C77.2511 26.7659 77.6291 26.0999 78.2981 25.6109Z" fill="#263238"/>
<path d="M76.2251 31.1339C76.1981 31.1939 76.1741 31.2509 76.1471 31.3079C75.7959 32.0372 75.3792 32.733 74.9021 33.3869C74.465 34.0238 73.9386 34.5947 73.3391 35.0819C73.3391 35.0819 73.3001 35.0819 73.3181 35.0579C73.9065 34.5316 74.4059 33.9136 74.7971 33.2279C75.2074 32.5743 75.5791 31.8971 75.9101 31.1999C76.5917 29.7887 77.0956 28.2983 77.4101 26.7629C77.4101 26.7329 77.4671 26.7419 77.4641 26.7629C77.4371 26.9789 77.4071 27.1949 77.3711 27.4079C77.3755 27.4073 77.3799 27.4078 77.384 27.4093C77.3882 27.4108 77.3919 27.4133 77.3948 27.4165C77.3978 27.4198 77.3999 27.4237 77.401 27.4279C77.4021 27.4322 77.4021 27.4366 77.4011 27.4409C77.1808 28.8744 76.815 30.2817 76.3091 31.6409C75.7637 32.9852 75.0392 34.2497 74.1551 35.3999C73.6709 36.0441 73.1479 36.6582 72.5891 37.2389C74.1424 35.4276 75.3724 33.3625 76.2251 31.1339Z" fill="#263238"/>
<path d="M83.4581 25.848C86.3741 28.164 86.8211 32.07 86.3861 35.448C86.1574 36.7986 85.8285 38.1303 85.4021 39.432C85.4021 39.45 85.3661 39.432 85.3721 39.432C85.8101 37.665 86.3291 34.962 86.2481 33.132C86.1731 31.437 85.9301 29.667 85.1561 28.116C84.7491 27.2638 84.1603 26.5111 83.4311 25.911C83.4041 25.869 83.4311 25.824 83.4581 25.848Z" fill="#263238"/>
<path d="M82.2311 40.5C82.7621 42.501 86.9021 51.942 90.9071 53.607C93.3071 54.609 101.662 49.764 103.033 48.396C103.663 47.766 99.8381 41.61 98.9711 42.006C97.9811 42.459 92.4461 46.32 92.0471 46.206C91.3631 45.999 87.1541 40.941 84.1301 38.835C82.3391 37.569 81.8561 39.081 82.2311 40.5Z" fill="#FFC4C0"/>
<path d="M100.36 49.6527C100.96 49.5477 103.36 49.1607 105.055 47.2677C105.235 45.7077 105.823 42.4287 106.009 41.6187C106.066 40.6797 106.417 39.3027 106.507 39.3237C106.675 39.3657 107.269 39.5037 108.007 39.6237C108.979 39.7707 110.194 39.8727 111.007 39.6387C111.2 39.6063 111.379 39.5218 111.527 39.3943C111.674 39.2668 111.784 39.1013 111.844 38.9157C112 38.2527 110.563 37.8477 108.901 37.2147C106.639 36.3537 104.05 35.1837 102.901 35.8137C101.218 36.7467 100.357 39.2547 99.9012 40.0137C99.2472 41.0937 98.2122 42.4647 98.2122 42.4647C98.3952 47.1327 99.9492 49.7277 100.36 49.6527Z" fill="#FFC4C0"/>
<path d="M113.392 40.4099C113.392 40.4099 110.392 39.8369 107.338 39.1109C104.284 38.3849 97.372 38.1629 97.216 38.3729C97.06 38.5829 103.9 40.1999 106.999 40.5479C110.098 40.8959 113.236 41.0549 113.236 41.0549L113.392 40.4099Z" fill="#A855F7"/>
<path d="M113.464 40.3859L111.424 39.8999L111.271 41.0249L113.332 41.1449L113.464 40.3859Z" fill="#DBDBDB"/>
<path d="M113.464 40.3856C113.705 40.2837 113.967 40.2406 114.228 40.2599C114.488 40.2792 114.741 40.3603 114.964 40.4966C115.147 40.6165 115.353 40.6973 115.569 40.734C115.785 40.7706 116.006 40.7623 116.218 40.7096C116.218 40.7096 114.763 42.1046 113.326 41.1446L113.464 40.3856Z" fill="#263238"/>
<path d="M116.302 40.6889C116.194 40.6379 115.702 40.8179 115.297 40.6259C114.892 40.4339 114.421 41.6279 114.997 41.4749C115.648 41.3009 116.5 40.7999 116.302 40.6889Z" fill="#455A64"/>
<path d="M104.044 48.0656C104.644 47.7026 108.388 44.4416 108.808 43.3976C109.228 42.3536 112.153 40.6976 110.407 40.0736C108.661 39.4496 106.441 42.4076 106.084 42.0656C106.007 41.9302 105.98 41.7718 106.009 41.6186C105.823 42.4286 104.224 46.4996 104.044 48.0656Z" fill="#FFC4C0"/>
<path d="M86.9622 51.0329L90.1242 43.6619C90.1242 43.6619 87.1752 40.6289 84.2292 38.6219C81.2832 36.6149 81.0312 39.6779 83.1672 44.0039C85.3032 48.3299 86.9622 51.0329 86.9622 51.0329Z" fill="#A855F7"/>
<path d="M86.071 48.984C86.686 47.364 87.418 45.786 88.171 44.223C88.385 43.781 88.61 43.345 88.846 42.915C88.846 42.915 88.873 42.915 88.867 42.915C88.54 43.719 88.183 44.508 87.829 45.315C87.475 46.122 87.115 46.899 86.737 47.682C86.524 48.126 86.314 48.582 86.092 49.005C86.092 49.014 86.062 49.005 86.071 48.984Z" fill="#263238"/>
<path opacity="0.1" d="M89.3022 45.5818L86.9622 51.0358C86.9622 51.0358 85.3002 48.3358 83.1672 44.0068C82.0062 41.6518 81.5502 39.6718 81.8502 38.6758C83.6082 40.7098 87.2382 43.7998 89.3022 45.5818Z" fill="black"/>
<path d="M68.6772 63.1916C68.7222 63.2456 89.0262 63.0866 89.2092 62.8916C89.4642 62.5916 84.6402 40.6496 82.5282 37.9526C82.0752 37.3766 80.6022 37.2326 79.3542 37.4006C79.0289 37.4421 78.7077 37.5114 78.3942 37.6076H78.3612C78.1093 37.6862 77.8722 37.8058 77.6592 37.9616C74.2122 40.7756 71.3892 50.5136 70.7382 53.4356C69.6582 58.2416 68.5002 62.9996 68.6772 63.1916Z" fill="#A855F7"/>
<path d="M77.7162 40.5178C76.7382 43.3828 70.7562 53.9458 70.7232 54.5128C70.7232 54.5128 64.0572 57.6778 63.5772 53.9758C63.0972 50.2738 70.6842 42.9688 74.4762 40.0768C76.3932 38.6158 78.5172 38.1808 77.7162 40.5178Z" fill="#FFC4C0"/>
<path d="M67 46.4366L74.953 47.4957C74.953 47.4957 77.077 43.8356 78.217 40.4576C79.357 37.0796 76.336 37.6646 72.745 40.8866C69.154 44.1086 67 46.4366 67 46.4366Z" fill="#A855F7"/>
<path d="M74.0351 47.3516L74.9351 47.4176C74.9711 47.3186 75.6941 45.7616 75.8741 45.4256C76.2371 44.7446 76.6391 44.0786 77.0321 43.4126C77.0333 43.4105 77.0349 43.4085 77.0368 43.407C77.0388 43.4054 77.041 43.4043 77.0433 43.4036C77.0457 43.4029 77.0482 43.4027 77.0506 43.4029C77.0531 43.4032 77.0555 43.4039 77.0576 43.4051C77.0598 43.4063 77.0617 43.4079 77.0633 43.4098C77.0648 43.4117 77.066 43.414 77.0667 43.4163C77.0674 43.4187 77.0676 43.4212 77.0673 43.4236C77.0671 43.4261 77.0663 43.4285 77.0651 43.4306C76.7861 44.0126 76.5161 44.6006 76.2281 45.1826C76.3001 45.1046 76.3691 45.0266 76.4351 44.9456C76.5731 44.7836 76.6991 44.6096 76.8281 44.4416C76.8281 44.4416 76.8641 44.4416 76.8551 44.4596C76.7288 44.702 76.5715 44.9269 76.3871 45.1286C76.3084 45.2159 76.2242 45.298 76.1351 45.3746L76.0631 45.5186C75.8891 45.8576 75.0161 47.5286 74.9861 47.5226C74.9561 47.5166 74.1071 47.4206 74.0171 47.4056C74.0111 47.3996 74.0141 47.3486 74.0351 47.3516Z" fill="#263238"/>
<path d="M68.5241 45.1198C70.2521 45.2758 71.9681 45.5548 73.6781 45.8668C74.1611 45.9538 74.6411 46.0528 75.1211 46.1668C75.1211 46.1668 75.1211 46.1908 75.1211 46.1878C74.2601 46.0918 73.4051 45.9598 72.5471 45.8338C71.6891 45.7078 70.8281 45.5728 69.9731 45.4198C69.4901 45.3358 69.0071 45.2488 68.5241 45.1558C68.5001 45.1468 68.5001 45.1168 68.5241 45.1198Z" fill="#263238"/>
<path d="M76.6752 38.253C76.6752 38.253 76.8762 47.469 76.7082 48.306C75.7932 52.878 75.0552 58.11 75.0552 58.47C75.0552 58.647 68.7552 60.384 68.7552 60.384L68.6472 61.176L72.2472 61.392C72.2472 61.392 71.1312 77.643 70.3212 82.959C70.1172 84.285 68.6472 92.739 68.6472 92.739C68.6472 92.739 74.7132 95.535 81.3042 95.319C83.9292 95.232 95.2752 92.181 95.2752 92.181C95.2752 92.181 95.9202 84.996 94.3752 78.654C92.1792 69.624 88.7262 59.262 87.8022 53.601C86.9022 48 83.6592 38.1 83.6592 38.1L82.6002 37.647L84.2232 44.316C82.4723 44.5228 80.7042 44.5419 78.9492 44.373L77.8902 37.8L76.6752 38.253Z" fill="#455A64"/>
<path d="M77.0322 69.7256C77.0322 69.7256 77.2362 72.4736 77.5722 75.3086C77.9082 78.1436 77.3862 84.3716 77.1792 84.4886C76.9722 84.6056 76.2372 78.2786 76.2432 75.4646C76.2492 72.6506 76.4352 69.8006 76.4352 69.8006L77.0322 69.7256Z" fill="#37474F"/>
<path d="M77.0591 69.666L77.2841 71.55L76.2581 71.571L76.3631 69.705L77.0591 69.666Z" fill="#DBDBDB"/>
<path d="M77.059 69.6659C77.1769 69.459 77.2438 69.227 77.2542 68.9891C77.2647 68.7512 77.2183 68.5143 77.119 68.2979C77.0302 68.1215 76.9787 67.9286 76.9679 67.7314C76.957 67.5342 76.987 67.3369 77.056 67.1519C77.056 67.1519 75.649 68.3129 76.363 69.7049L77.059 69.6659Z" fill="#A855F7"/>
<g opacity="0.2">
<path d="M77.059 69.6659C77.1769 69.459 77.2438 69.227 77.2542 68.9891C77.2647 68.7512 77.2183 68.5143 77.119 68.2979C77.0302 68.1215 76.9787 67.9286 76.9679 67.7314C76.957 67.5342 76.987 67.3369 77.056 67.1519C77.056 67.1519 75.649 68.3129 76.363 69.7049L77.059 69.6659Z" fill="black"/>
</g>
<path d="M81.505 72.2998C81.505 72.2998 80.305 74.2228 78.961 76.1548C77.617 78.0868 75.598 82.8148 75.7 82.9798C75.802 83.1448 78.781 78.8278 79.864 76.7758C80.947 74.7238 81.91 72.5758 81.91 72.5758L81.505 72.2998Z" fill="#A6A6A6"/>
<path d="M81.5112 72.2427L80.6172 73.5267L81.3582 73.9407L82.0002 72.5397L81.5112 72.2427Z" fill="#DBDBDB"/>
<path d="M81.5112 72.243C81.8502 71.097 82.9842 70.356 82.9842 70.356C82.9842 70.356 83.0592 71.805 82.0002 72.54L81.5112 72.243Z" fill="#A855F7"/>
<g opacity="0.2">
<path d="M81.5112 72.243C81.8502 71.097 82.9842 70.356 82.9842 70.356C82.9842 70.356 83.0592 71.805 82.0002 72.54L81.5112 72.243Z" fill="black"/>
</g>
<path d="M79.813 69.0536C79.813 69.0536 79.621 71.3156 79.513 73.6646C79.405 76.0136 78.19 81.0086 78.013 81.0806C77.836 81.1526 78.049 75.9086 78.418 73.6196C78.787 71.3306 79.318 69.0356 79.318 69.0356L79.813 69.0536Z" fill="#263238"/>
<path d="M79.843 69.0087L79.783 70.5717L78.946 70.4547L79.273 68.9487L79.843 69.0087Z" fill="#DBDBDB"/>
<path d="M79.2731 68.9487C79.2731 68.9487 79.8101 69.0147 79.8431 69.0087C80.1207 68.5311 80.3672 68.036 80.5811 67.5267C80.5571 67.4787 78.7601 67.3377 78.7331 67.5027C78.7061 67.6677 79.2731 68.9487 79.2731 68.9487Z" fill="#A855F7"/>
<path opacity="0.2" d="M79.2731 68.9487C79.2731 68.9487 79.8101 69.0147 79.8431 69.0087C80.1207 68.5311 80.3672 68.036 80.5811 67.5267C80.5571 67.4787 78.7601 67.3377 78.7331 67.5027C78.7061 67.6677 79.2731 68.9487 79.2731 68.9487Z" fill="black"/>
<path d="M73.6182 75.6298L81.9102 75.5278C81.9102 75.5278 82.3902 83.3518 82.3182 83.5138C82.2462 83.6758 78.6702 85.5088 77.7522 85.2868C76.8342 85.0648 73.8342 83.9578 73.6632 83.4868C73.4922 83.0158 73.6182 75.6298 73.6182 75.6298Z" fill="#37474F"/>
<path d="M78.9641 45.3866C78.9641 45.4928 78.9326 45.5966 78.8736 45.685C78.8146 45.7733 78.7308 45.8421 78.6326 45.8827C78.5345 45.9234 78.4265 45.934 78.3224 45.9133C78.2182 45.8926 78.1225 45.8414 78.0474 45.7663C77.9723 45.6912 77.9212 45.5955 77.9005 45.4914C77.8797 45.3872 77.8904 45.2792 77.931 45.1811C77.9717 45.083 78.0405 44.9991 78.1288 44.9401C78.2171 44.8811 78.3209 44.8496 78.4271 44.8496C78.5696 44.8496 78.7061 44.9062 78.8069 45.0069C78.9076 45.1076 78.9641 45.2442 78.9641 45.3866Z" fill="#A855F7"/>
<path d="M85.3001 44.8679C85.2953 44.948 85.268 45.0252 85.2216 45.0906C85.1751 45.156 85.1112 45.207 85.0371 45.238C84.9631 45.2689 84.8818 45.2784 84.8026 45.2654C84.7234 45.2525 84.6495 45.2176 84.5891 45.1647C84.5288 45.1118 84.4845 45.043 84.4612 44.9662C84.438 44.8894 84.4368 44.8076 84.4577 44.7301C84.4787 44.6527 84.5209 44.5826 84.5797 44.528C84.6384 44.4733 84.7113 44.4362 84.7901 44.4209C85.0181 44.3759 85.2461 44.5739 85.3001 44.8679Z" fill="#A855F7"/>
<path d="M82.0632 40.7456C80.9562 41.0756 78.9342 39.4766 78.0912 38.1326C78.0342 38.0396 78.1212 37.0286 78.1692 35.7956C78.1962 35.0456 78.2052 34.2116 78.1692 33.4496C78.1692 33.2936 83.0202 34.3286 83.0202 34.3286C82.7994 35.2976 82.6986 36.29 82.7202 37.2836C82.7295 37.3848 82.7466 37.4851 82.7712 37.5836C82.7722 37.6006 82.7722 37.6176 82.7712 37.6346C82.9152 38.2346 83.1312 40.4246 82.0632 40.7456Z" fill="#FFC4C0"/>
<path d="M78.457 33.4526C78.757 34.7276 79.738 37.7936 82.294 37.7006C82.4572 37.6962 82.6198 37.6781 82.78 37.6466C82.782 37.6297 82.782 37.6126 82.78 37.5956C82.7554 37.4971 82.7384 37.3968 82.729 37.2956C82.7074 36.3021 82.8082 35.3096 83.029 34.3406C83.029 34.3406 79.504 33.5786 78.457 33.4526Z" fill="#263238"/>
<path d="M77.881 27.327C77.23 28.98 77.737 33.927 78.856 35.127C80.476 36.846 83.32 37.227 84.832 35.232C86.293 33.3 85.519 26.847 84.253 25.749C82.387 24.132 78.841 24.9 77.881 27.327Z" fill="#FFC4C0"/>
<path d="M82.2521 30.8008C82.2521 30.8008 82.2251 30.8218 82.2281 30.8338C82.2701 31.1668 82.2641 31.5568 81.9731 31.6978C81.9731 31.6978 81.9731 31.7188 81.9731 31.7158C82.3421 31.6288 82.3451 31.1098 82.2521 30.8008Z" fill="#263238"/>
<path d="M81.9192 30.483C81.3762 30.483 81.4392 31.575 81.9402 31.566C82.4412 31.557 82.3722 30.474 81.9192 30.483Z" fill="#263238"/>
<path d="M84.1961 30.6567C84.1961 30.6567 84.223 30.6567 84.223 30.6837C84.223 31.0197 84.298 31.4037 84.607 31.4967V31.5177C84.232 31.4997 84.1511 30.9777 84.1961 30.6567Z" fill="#263238"/>
<path d="M84.4752 30.2998C85.0122 30.2278 85.1172 31.3078 84.6192 31.3738C84.1212 31.4398 84.0252 30.3508 84.4752 30.2998Z" fill="#263238"/>
<path d="M81.5262 30.18C81.6748 30.1944 81.8239 30.2015 81.9732 30.201C82.128 30.2304 82.2882 30.2083 82.4292 30.138C82.4693 30.1065 82.498 30.0628 82.511 30.0135C82.524 29.9643 82.5206 29.9121 82.5012 29.865C82.4484 29.7782 82.3731 29.7073 82.2833 29.6598C82.1936 29.6123 82.0926 29.5899 81.9912 29.595C81.7849 29.572 81.5775 29.6266 81.4092 29.748C81.3729 29.7781 81.346 29.818 81.3318 29.863C81.3176 29.9079 81.3165 29.956 81.3289 30.0016C81.3412 30.0471 81.3664 30.0881 81.4013 30.1197C81.4363 30.1514 81.4797 30.1723 81.5262 30.18Z" fill="#263238"/>
<path d="M84.9282 29.2978C84.7803 29.3068 84.6321 29.3068 84.4842 29.2978C84.3274 29.3216 84.1672 29.2931 84.0282 29.2168C83.9895 29.1837 83.9627 29.1387 83.9519 29.0889C83.941 29.0391 83.9468 28.9871 83.9682 28.9408C84.0251 28.8572 84.103 28.7902 84.1942 28.7464C84.2853 28.7027 84.3864 28.6839 84.4872 28.6918C84.6942 28.6761 84.8996 28.7382 85.0632 28.8658C85.1014 28.8964 85.1294 28.9378 85.1436 28.9845C85.1579 29.0313 85.1577 29.0813 85.1432 29.1279C85.1286 29.1746 85.1003 29.2157 85.0619 29.2461C85.0236 29.2764 84.977 29.2944 84.9282 29.2978Z" fill="#263238"/>
<path d="M82.0422 33.8999C82.1262 33.9749 82.2132 34.0799 82.3422 34.0829C82.4662 34.0727 82.5867 34.037 82.6962 33.9779C82.6962 33.9779 82.7202 33.9779 82.7142 33.9779C82.6721 34.0492 82.6112 34.1076 82.5382 34.1468C82.4652 34.1859 82.3829 34.2043 82.3002 34.1999C82.231 34.1858 82.1676 34.1514 82.1179 34.1012C82.0682 34.051 82.0346 33.9872 82.0212 33.9179C82.0002 33.8999 82.0302 33.8999 82.0422 33.8999Z" fill="#263238"/>
<path d="M82.3361 32.8799C82.4292 33.0076 82.5475 33.1148 82.6838 33.1948C82.82 33.2748 82.9713 33.3259 83.1281 33.3449C83.2644 33.3644 83.4028 33.3644 83.5391 33.3449C83.565 33.3481 83.5912 33.3481 83.6171 33.3449C83.642 33.3475 83.6672 33.3475 83.6921 33.3449C83.7094 33.34 83.7247 33.3299 83.736 33.3159C83.7473 33.302 83.7539 33.2849 83.7551 33.2669C83.7566 33.256 83.7566 33.2449 83.7551 33.2339V33.2039C83.7551 32.9459 83.6981 32.5529 83.6981 32.5529C83.7971 32.5949 84.2981 32.7839 84.2741 32.6489C84.1767 31.4872 83.9616 30.3383 83.6321 29.2199C83.63 29.2132 83.6258 29.2074 83.6202 29.2032C83.6145 29.199 83.6076 29.1968 83.6006 29.1968C83.5936 29.1968 83.5867 29.199 83.5811 29.2032C83.5754 29.2074 83.5712 29.2132 83.5691 29.2199C83.6531 30.2939 83.9261 31.3469 84.0281 32.4239C83.8519 32.3554 83.6672 32.311 83.4791 32.2919C83.4431 32.2919 83.5871 33.0479 83.5811 33.1649C83.3712 33.1978 83.1568 33.1882 82.9507 33.1367C82.7445 33.0851 82.5509 32.9927 82.3811 32.8649C82.3391 32.8289 82.3151 32.8529 82.3361 32.8799Z" fill="#263238"/>
<path d="M83.3831 33.2367C83.2439 33.4228 83.0589 33.5695 82.8461 33.6627C82.7284 33.712 82.5981 33.7225 82.4741 33.6927C82.2041 33.6267 82.1951 33.3927 82.2401 33.1677C82.2665 33.0556 82.3057 32.9469 82.3571 32.8438C82.648 33.0816 83.0077 33.2194 83.3831 33.2367Z" fill="#263238"/>
<path d="M82.8461 33.663C82.7284 33.7123 82.5981 33.7228 82.4741 33.693C82.2041 33.627 82.1951 33.393 82.2401 33.168C82.3818 33.1711 82.5184 33.2216 82.6282 33.3112C82.738 33.4009 82.8147 33.5247 82.8461 33.663Z" fill="#FF99BA"/>
<path d="M81.8741 34.1997C81.9569 34.2904 82.0618 34.3579 82.1786 34.3958C82.2953 34.4337 82.4199 34.4405 82.5401 34.4157C82.5287 34.5225 82.4963 34.6259 82.4448 34.7201C82.3934 34.8143 82.3238 34.8974 82.2401 34.9647L82.3031 34.7547C82.1966 34.9746 82.0368 35.1644 81.8381 35.3067C81.7821 35.1529 81.7717 34.9863 81.8081 34.8267L81.7301 35.0787C81.6863 34.9308 81.6765 34.7749 81.7014 34.6227C81.7264 34.4705 81.7854 34.3259 81.8741 34.1997Z" fill="#263238"/>
<path d="M78.3582 31.6166C78.6582 31.4066 79.2132 29.8346 79.2132 29.8346C79.2132 29.8346 82.4202 29.0306 83.1432 26.3156C83.1432 26.3156 84.1512 28.2446 85.3872 28.7726C85.3872 28.7726 85.5612 25.7516 83.2512 25.1126C83.2512 25.1126 80.9472 23.7416 78.4512 25.8986C75.9552 28.0556 77.5722 31.5746 77.5722 31.5746L78.3582 31.6166Z" fill="#263238"/>
<path d="M83.1341 25.7819C83.1707 26.2569 83.0774 26.7329 82.8641 27.1589C82.675 27.5926 82.4244 27.9967 82.1201 28.3589C81.8207 28.7326 81.4631 29.0557 81.0611 29.3159C80.581 29.5771 80.0641 29.7642 79.5281 29.8709C79.5281 29.8709 79.5281 29.9039 79.5281 29.9009C80.0864 29.8052 80.6293 29.6347 81.1421 29.3939C81.5783 29.1448 81.9697 28.8243 82.3001 28.4459C82.6516 28.086 82.9226 27.6555 83.0951 27.1829C83.2333 26.7271 83.2631 26.2453 83.1821 25.7759C83.2001 25.7429 83.1281 25.7459 83.1341 25.7819Z" fill="#263238"/>
<path d="M78.61 31.3949C78.61 31.3949 77.596 29.7479 76.855 30.0989C76.114 30.4499 76.81 32.7989 77.635 33.1619C77.7377 33.2158 77.8502 33.2483 77.9659 33.2575C78.0815 33.2667 78.1978 33.2524 78.3077 33.2154C78.4176 33.1784 78.5189 33.1194 78.6054 33.0422C78.6919 32.9649 78.7618 32.8709 78.811 32.7659L78.61 31.3949Z" fill="#FFC4C0"/>
<path d="M77.0712 30.7676C77.0712 30.7676 77.0532 30.7676 77.0712 30.7886C77.6502 31.0616 77.9292 31.6286 78.1122 32.2106C78.0813 32.1496 78.0376 32.096 77.9841 32.0535C77.9305 32.011 77.8684 31.9806 77.802 31.9644C77.7356 31.9481 77.6665 31.9465 77.5994 31.9594C77.5323 31.9724 77.4688 31.9998 77.4132 32.0396C77.41 32.041 77.4073 32.0433 77.4054 32.0462C77.4034 32.0491 77.4024 32.0526 77.4024 32.0561C77.4024 32.0596 77.4034 32.063 77.4054 32.0659C77.4073 32.0689 77.41 32.0712 77.4132 32.0726C77.5192 32.046 77.6308 32.0528 77.7329 32.092C77.8349 32.1311 77.9223 32.2009 77.9832 32.2916C78.0843 32.4441 78.1688 32.6071 78.2352 32.7776C78.2592 32.8316 78.3552 32.8106 78.3402 32.7476C78.4002 31.9796 77.8782 30.8996 77.0712 30.7676Z" fill="#263238"/>
<path d="M78.301 25.9978C78.721 25.8388 79.123 23.4808 77.572 22.3558C76.021 21.2308 74.032 22.5148 74.872 24.4558C75.4 25.6708 77.407 26.3308 78.301 25.9978Z" fill="#263238"/>
<path d="M75.4002 22.2178C74.9383 22.6008 74.6208 23.1299 74.5002 23.7178C74.4384 23.9903 74.4494 24.2744 74.532 24.5413C74.6147 24.8083 74.7662 25.0488 74.9712 25.2388C75.4067 25.626 75.9401 25.8864 76.5132 25.9918C76.8041 26.056 77.1004 26.0932 77.3982 26.1028C77.7017 26.1246 78.0067 26.091 78.2982 26.0038C78.0209 26.156 77.7138 26.2461 77.3982 26.2678C77.0857 26.2988 76.7706 26.2937 76.4592 26.2528C75.8174 26.1803 75.2138 25.911 74.7312 25.4818C74.4875 25.2514 74.3111 24.9589 74.2212 24.6358C74.14 24.314 74.1462 23.9764 74.2392 23.6578C74.3234 23.3509 74.4699 23.0646 74.6697 22.8168C74.8695 22.5691 75.1181 22.3651 75.4002 22.2178Z" fill="#263238"/>
<path d="M77.8781 52.5747C78.8471 52.8747 77.9021 60.9957 76.4231 60.7647C70.3271 59.8167 65.5871 56.9307 64.5371 55.7727C63.2111 54.3117 63.3161 52.8627 64.1381 51.9957C65.3261 50.7357 76.9181 52.2657 77.8781 52.5747Z" fill="#FFC4C0"/>
<path d="M71.9981 51.7046C70.7873 51.4763 69.5519 51.4067 68.3231 51.4976C68.2961 51.4976 68.2931 51.5426 68.3231 51.5426C70.2581 51.6266 71.3891 51.7706 72.0071 51.8156C72.1961 51.8276 72.3611 51.7916 71.9981 51.7046Z" fill="#263238"/>
<path d="M75.1301 60.4379C78.0311 61.4099 81.5861 62.7929 84.9611 62.0759C85.3385 62.0059 85.681 61.8103 85.9331 61.5209C87.4511 61.2209 87.7691 60.4199 87.7691 60.4199C89.0981 59.7119 89.3111 58.8449 89.3111 58.8449C89.3111 58.8449 91.0901 58.4789 91.0481 57.3659C91.0031 56.1179 88.5131 56.8769 86.8901 56.4659C83.1671 55.4999 77.5901 52.9439 76.5551 52.5659L75.1301 60.4379Z" fill="#FFC4C0"/>
<path d="M82.3002 58.182C83.3844 58.475 84.4868 58.6955 85.6002 58.842C86.8303 58.922 88.0646 58.9119 89.2932 58.812C89.3012 58.812 89.3088 58.8151 89.3144 58.8207C89.3201 58.8264 89.3232 58.834 89.3232 58.842C89.3232 58.8499 89.3201 58.8575 89.3144 58.8632C89.3088 58.8688 89.3012 58.872 89.2932 58.872C86.9386 59.3052 84.5102 59.0831 82.2732 58.23C82.2222 58.2 82.2312 58.167 82.3002 58.182Z" fill="#263238"/>
<path d="M81.3761 60.3417C82.4621 60.5367 84.3761 60.8697 87.7691 60.3807C87.7691 60.3807 87.7871 60.3807 87.7691 60.3987C85.6746 60.9943 83.4556 60.9943 81.3611 60.3987C81.3011 60.3777 81.3041 60.3297 81.3761 60.3417Z" fill="#263238"/>
<path d="M80.9111 61.5149C82.7681 61.7759 83.9741 61.7069 85.9301 61.5149C85.9301 61.5149 85.9481 61.5329 85.9301 61.5359C83.7281 61.9919 82.8761 61.9079 80.8871 61.5809C80.8241 61.5659 80.8361 61.4999 80.9111 61.5149Z" fill="#263238"/>
<path d="M83.3801 54.21C88.0811 52.854 101.602 53.643 101.662 56.874C101.734 60.723 80.8541 60.561 80.8481 57.957C80.8481 56.508 85.6661 56.718 85.6481 55.872C85.6391 55.227 81.7181 54.69 83.3801 54.21Z" fill="#A855F7"/>
<path opacity="0.3" d="M83.3801 54.21C88.0811 52.854 101.602 53.643 101.662 56.874C101.734 60.723 80.8541 60.561 80.8481 57.957C80.8481 56.508 85.6661 56.718 85.6481 55.872C85.6391 55.227 81.7181 54.69 83.3801 54.21Z" fill="black"/>
<path d="M83.3801 53.8706C88.0811 52.5146 101.602 53.3036 101.662 56.5346C101.734 60.3836 80.8541 60.2216 80.8481 57.6176C80.8481 56.1686 85.6661 56.3786 85.6481 55.5356C85.6391 54.8996 81.7181 54.3506 83.3801 53.8706Z" fill="#A855F7"/>
<path opacity="0.2" d="M83.3801 53.8706C88.0811 52.5146 101.602 53.3036 101.662 56.5346C101.734 60.3836 80.8541 60.2216 80.8481 57.6176C80.8481 56.1686 85.6661 56.3786 85.6481 55.5356C85.6391 54.8996 81.7181 54.3506 83.3801 53.8706Z" fill="black"/>
<path d="M87.4541 57.0146C87.7424 57.0552 88.0104 57.1865 88.2191 57.3896C88.275 57.442 88.318 57.5066 88.3447 57.5785C88.3714 57.6503 88.3811 57.7274 88.373 57.8036C88.3648 57.8797 88.3391 57.953 88.2978 58.0176C88.2565 58.0821 88.2008 58.1362 88.1351 58.1756C87.5351 58.5626 85.9631 58.4936 85.7921 57.6056C85.6391 56.7986 86.7311 56.8286 87.4541 57.0146Z" fill="#455A64"/>
<path d="M91.1652 58.1639L91.0782 58.1279C90.9832 58.0974 90.8932 58.0529 90.8112 57.9959C90.7287 57.9393 90.6617 57.863 90.6162 57.7739C90.5792 57.7192 90.5613 57.6538 90.5652 57.5879C90.567 57.4943 90.5964 57.4033 90.6498 57.3265C90.7032 57.2496 90.7782 57.1902 90.8652 57.1559C91.1449 57.0571 91.4387 57.0044 91.7352 56.9999C92.1612 56.9339 92.4642 56.6789 92.9082 56.7149C93.3972 56.7569 93.9702 57.0149 94.0692 57.4589C94.3302 58.6349 91.8222 58.4039 91.1652 58.1639Z" fill="#263238"/>
<path d="M87.7362 54.8997C87.9012 55.3377 88.3812 55.3347 88.7772 55.3197C89.1732 55.3047 89.5662 55.2957 89.9592 55.2777C90.2149 55.3048 90.4725 55.2491 90.6942 55.1187L90.7272 55.0797C90.7959 55.0416 90.85 54.9817 90.881 54.9095C90.912 54.8373 90.918 54.7568 90.8982 54.6807C90.8412 54.3327 90.4842 54.2397 90.1572 54.1737C90.0415 54.1382 89.9231 54.1121 89.8032 54.0957C89.2692 53.9517 88.6662 53.6907 88.1322 53.9727C87.9659 54.054 87.8344 54.1923 87.7617 54.3625C87.689 54.5327 87.6799 54.7234 87.7362 54.8997Z" fill="#C7C7C7"/>
<path d="M92.8182 54.3237C92.3352 54.9237 93.2352 55.3767 93.7182 55.4277C94.2012 55.4787 95.5512 55.5537 95.4822 54.8277C95.4462 54.3867 94.9752 54.2427 94.5222 54.2277C93.9282 54.0177 93.1452 53.9157 92.8182 54.3237Z" fill="#A855F7"/>
<path d="M99.2381 55.7638C99.8051 56.4238 99.0401 57.1588 98.3921 57.2818C97.8815 57.3563 97.3638 57.3694 96.8501 57.3208C96.6857 57.3319 96.5223 57.2882 96.3855 57.1964C96.2487 57.1047 96.1462 56.9701 96.0941 56.8138C95.9471 56.1148 96.6341 55.8448 97.2731 55.7428C97.9541 55.4368 98.8001 55.2358 99.2381 55.7638Z" fill="#EBEBEB"/>
<path d="M82.4772 55.0107C82.0422 54.6927 82.2072 54.4617 83.1642 54.4287C84.1212 54.3957 87.9372 55.0707 88.0602 53.7207C88.1832 52.3707 82.7952 51.7527 81.1992 51.6687C79.5193 51.6082 77.848 51.9357 76.3152 52.6257C77.3292 53.0067 80.5002 54.2367 82.4772 55.0107Z" fill="#FFC4C0"/>
</svg>
