<svg width="184" height="48" viewBox="0 0 184 48" fill="none" xmlns="http://www.w3.org/2000/svg">
<g clip-path="url(#clip0_1_18999)">
<path d="M24.5285 22.3258C26.6318 22.3258 28.337 20.7485 28.337 18.8028C28.337 16.8571 26.6318 15.2798 24.5285 15.2798C22.4251 15.2798 20.72 16.8571 20.72 18.8028C20.72 20.7485 22.4251 22.3258 24.5285 22.3258Z" fill="#FF6584"/>
<path d="M34.9755 21.4295C34.9839 21.428 34.9902 21.4226 35 21.424C34.9957 21.4087 34.9901 21.3938 34.9833 21.3794C34.9712 21.3947 34.9588 21.4103 34.948 21.4239L34.9755 21.4295Z" fill="white"/>
<path d="M9.43133 27.141C9.45357 27.9096 9.59276 28.6715 9.84477 29.4042C9.85053 29.4212 9.85657 29.438 9.86261 29.455H11.4055C11.4039 29.4397 11.4022 29.4227 11.4006 29.4042C11.2977 28.3101 10.7046 21.6514 11.4138 20.5127C11.3518 20.6051 9.31171 23.6647 9.43133 27.141Z" fill="#E6E6E6"/>
<path d="M9.54693 29.4044C9.55982 29.4214 9.57327 29.4384 9.58698 29.4552H10.7445C10.7357 29.4407 10.7255 29.4237 10.7137 29.4044C10.5225 29.0852 9.95654 28.1307 9.43116 27.1412C8.86655 26.0779 8.34858 24.9742 8.3922 24.5747C8.37875 24.6648 7.98808 27.4112 9.54693 29.4044Z" fill="#E6E6E6"/>
<path d="M21.5748 29.5872C21.5554 30.2573 21.434 30.9216 21.2143 31.5603C21.2093 31.5752 21.204 31.5898 21.1988 31.6046H19.8536C19.855 31.5913 19.8565 31.5765 19.8579 31.5603C19.9476 30.6065 20.4647 24.8013 19.8464 23.8086C19.9005 23.8891 21.679 26.5565 21.5748 29.5872Z" fill="#E6E6E6"/>
<path d="M21.474 31.5602C21.4627 31.5751 21.451 31.5899 21.439 31.6045H20.4299C20.4376 31.5919 20.4464 31.5771 20.4567 31.5602C20.6234 31.2819 21.1169 30.4498 21.5749 29.5871C22.0671 28.6601 22.5187 27.6979 22.4807 27.3496C22.4924 27.4282 22.833 29.8225 21.474 31.5602Z" fill="#E6E6E6"/>
<path d="M6.1947 9.85977L6.822 9.39566C6.33467 9.34593 6.13444 9.59178 6.0525 9.78637C5.67178 9.64013 5.25732 9.83178 5.25732 9.83178L6.51244 10.2533C6.44912 10.0968 6.3389 9.96033 6.1947 9.85977Z" fill="#3F3D56"/>
<path d="M25.0885 7.47061L25.7158 7.0065C25.2285 6.95677 25.0282 7.20262 24.9463 7.39721C24.5656 7.25097 24.1511 7.44262 24.1511 7.44262L25.4062 7.86412C25.3429 7.70767 25.2327 7.57117 25.0885 7.47061Z" fill="#3F3D56"/>
<path d="M34.3181 25.8241C34.3181 26.2087 34.3036 26.5901 34.2747 26.9684C34.0512 29.9527 32.9326 32.8203 31.0444 35.2489C30.7977 35.5675 30.5386 35.8771 30.2672 36.1778C29.5639 36.958 28.783 37.6755 27.9349 38.3209L24.217 36.3028L21.9941 31.5036C21.9941 31.5036 25.3108 25.2917 34.3122 25.4043C34.316 25.5438 34.3179 25.6837 34.3181 25.8241Z" fill="#3F3D56"/>
<path d="M34.2746 26.9683C34.1036 29.1984 33.4347 31.3715 32.3102 33.3505C31.1857 35.3294 29.6299 37.0713 27.7412 38.4662L24.2872 36.5915L22.3159 32.3352C22.3159 32.3352 25.5102 26.3525 34.2746 26.9683Z" fill="#B05EFA"/>
<path d="M31.0444 35.249C30.7976 35.5675 30.5386 35.8772 30.2671 36.1779C28.4484 38.1992 26.1245 39.7801 23.4966 40.7836C22.9645 40.9865 22.4198 41.1655 21.8627 41.3204C17.8397 42.3101 13.5776 42.0598 9.72217 40.6074C5.90921 39.0331 2.82795 36.2529 1.03182 32.766C0.790432 32.2966 0.573365 31.8153 0.380615 31.3221C3.74229 29.044 10.3664 25.782 17.5859 28.9517C19.583 29.8285 21.3662 30.6277 22.9355 31.3494C26.9178 33.1754 29.5682 34.4918 31.0444 35.249Z" fill="#3F3D56"/>
<path d="M30.2671 36.1775C28.387 38.2618 25.9705 39.8752 23.2399 40.8694C20.5093 41.8636 17.5522 42.2066 14.6408 41.8668C11.7294 41.527 8.95708 40.5154 6.57895 38.925C4.20083 37.3346 2.29326 35.2166 1.03174 32.7657C3.8393 30.7119 10.3148 27.0212 17.4212 30.1408C19.2487 30.9432 20.8803 31.6745 22.3159 32.335C26.5009 34.2538 29.0789 35.5578 30.2671 36.1775Z" fill="#B05EFA"/>
<path d="M25.3118 39.9742C24.7239 40.2757 24.1179 40.5459 23.4966 40.7835C21.3826 41.5894 19.1178 42.0028 16.8312 42.0002C14.1256 41.9992 11.457 41.418 9.03506 40.3022C6.61314 39.1864 4.50384 37.5664 2.8728 35.5694C7.04928 35.1621 18.5939 34.6128 25.3118 39.9742Z" fill="#3F3D56"/>
<path d="M23.4965 40.7834C20.2183 42.0303 16.6082 42.3273 13.1436 41.6352C9.67905 40.943 6.52321 39.2943 4.09351 36.9071C5.61261 36.7007 17.5391 35.2831 23.4965 40.7834Z" fill="#B05EFA"/>
<path d="M31.385 16.8537V16.8542C18.8984 8.31418 4.59243 14.3251 4.48193 14.3713V14.3708C6.10345 12.871 8.02888 11.6818 10.1479 10.8714C12.267 10.061 14.5381 9.64525 16.8311 9.64796C22.9017 9.64796 28.2496 12.5095 31.385 16.8537Z" fill="#E6E6E6"/>
<path d="M5.48345 26.1378C7.59576 25.7855 8.67818 22.2679 7.90111 18.281C7.12403 14.2941 4.78172 11.3477 2.66941 11.7C0.557095 12.0523 -0.525329 15.5699 0.251748 19.5568C1.02882 23.5436 3.37114 26.4901 5.48345 26.1378Z" fill="#3F3D56"/>
<path d="M6.02637 30.794C5.90114 22.0368 2.73368 13.8187 2.70171 13.7368L2.41284 13.8332C2.44465 13.9147 5.59474 22.0897 5.71931 30.7978L6.02637 30.794Z" fill="#B05EFA"/>
<path d="M0.406521 17.9279L0.312012 18.1982L4.10409 19.3327L4.1986 19.0623L0.406521 17.9279Z" fill="#B05EFA"/>
<path d="M7.5397 17.6236L4.41528 19.9126L4.60597 20.1353L7.73039 17.8464L7.5397 17.6236Z" fill="#B05EFA"/>
<path d="M15.6402 24.8749C17.9628 24.8749 19.8456 21.3212 19.8456 16.9374C19.8456 12.5537 17.9628 9 15.6402 9C13.3176 9 11.4348 12.5537 11.4348 16.9374C11.4348 21.3212 13.3176 24.8749 15.6402 24.8749Z" fill="#3F3D56"/>
<path d="M15.2519 29.9298C16.9362 20.5819 15.2688 11.2677 15.2518 11.1748L14.9242 11.2261C14.9411 11.3186 16.5989 20.5838 14.9241 29.8794L15.2519 29.9298Z" fill="#B05EFA"/>
<path d="M11.9378 15.2309L11.781 15.502L15.5838 17.3835L15.7406 17.1124L11.9378 15.2309Z" fill="#B05EFA"/>
<path d="M19.5973 16.1735L15.7949 18.0562L15.9518 18.3272L19.7541 16.4446L19.5973 16.1735Z" fill="#B05EFA"/>
<path d="M33.9072 22.322C32.3642 21.5207 30.7521 20.8389 29.0875 20.2837C19.8833 17.2028 10.7563 18.3902 7.18384 22.7994C9.96404 17.3978 19.8844 15.6993 29.8954 19.0501C31.0605 19.4398 32.2008 19.8904 33.3107 20.3998C33.5525 21.0284 33.7517 21.6704 33.9072 22.322Z" fill="#E6E6E6"/>
<path d="M21.4762 13.6298L22.1035 13.1657C21.6162 13.1159 21.4159 13.3618 21.334 13.5564C20.9533 13.4102 20.5388 13.6018 20.5388 13.6018L21.7939 14.0233C21.7306 13.8669 21.6204 13.7303 21.4762 13.6298Z" fill="#3F3D56"/>
</g>
<path d="M174.451 30.9805V34.1797H163.855V30.9805H174.451ZM165.195 14.2734V34.1797H161.094V14.2734H165.195ZM173.07 22.3809V25.498H163.855V22.3809H173.07ZM174.438 14.2734V17.4863H163.855V14.2734H174.438Z" fill="black"/>
<path d="M138.439 14.2734H141.912L147.025 28.8887L152.139 14.2734H155.611L148.42 34.1797H145.631L138.439 14.2734ZM136.566 14.2734H140.025L140.654 28.5195V34.1797H136.566V14.2734ZM154.025 14.2734H157.498V34.1797H153.396V28.5195L154.025 14.2734Z" fill="black"/>
<path d="M133.613 23.7617V24.7051C133.613 26.2181 133.408 27.5762 132.998 28.7793C132.588 29.9824 132.009 31.0078 131.262 31.8555C130.514 32.694 129.621 33.3366 128.582 33.7832C127.552 34.2298 126.408 34.4531 125.15 34.4531C123.902 34.4531 122.758 34.2298 121.719 33.7832C120.689 33.3366 119.796 32.694 119.039 31.8555C118.283 31.0078 117.695 29.9824 117.275 28.7793C116.865 27.5762 116.66 26.2181 116.66 24.7051V23.7617C116.66 22.2396 116.865 20.8815 117.275 19.6875C117.686 18.4844 118.264 17.459 119.012 16.6113C119.768 15.7637 120.661 15.1165 121.691 14.6699C122.73 14.2233 123.874 14 125.123 14C126.381 14 127.525 14.2233 128.555 14.6699C129.594 15.1165 130.487 15.7637 131.234 16.6113C131.991 17.459 132.574 18.4844 132.984 19.6875C133.404 20.8815 133.613 22.2396 133.613 23.7617ZM129.471 24.7051V23.7344C129.471 22.6771 129.375 21.7474 129.184 20.9453C128.992 20.1432 128.71 19.4688 128.336 18.9219C127.962 18.375 127.507 17.9648 126.969 17.6914C126.431 17.4089 125.816 17.2676 125.123 17.2676C124.43 17.2676 123.815 17.4089 123.277 17.6914C122.749 17.9648 122.298 18.375 121.924 18.9219C121.559 19.4688 121.281 20.1432 121.09 20.9453C120.898 21.7474 120.803 22.6771 120.803 23.7344V24.7051C120.803 25.7533 120.898 26.6829 121.09 27.4941C121.281 28.2962 121.564 28.9753 121.938 29.5312C122.311 30.0781 122.767 30.4928 123.305 30.7754C123.842 31.0579 124.458 31.1992 125.15 31.1992C125.843 31.1992 126.458 31.0579 126.996 30.7754C127.534 30.4928 127.985 30.0781 128.35 29.5312C128.714 28.9753 128.992 28.2962 129.184 27.4941C129.375 26.6829 129.471 25.7533 129.471 24.7051Z" fill="black"/>
<path d="M110.768 22.3809V25.5801H100.377V22.3809H110.768ZM101.594 14.2734V34.1797H97.4922V14.2734H101.594ZM113.693 14.2734V34.1797H109.605V14.2734H113.693Z" fill="black"/>
<path d="M86.9512 14.2734V34.1797H82.8496L74.8516 20.8359V34.1797H70.75V14.2734H74.8516L82.8633 27.6309V14.2734H86.9512Z" fill="black"/>
<path d="M68.3574 30.9805V34.1797H57.7617V30.9805H68.3574ZM59.1016 14.2734V34.1797H55V14.2734H59.1016ZM66.9766 22.3809V25.498H57.7617V22.3809H66.9766ZM68.3438 14.2734V17.4863H57.7617V14.2734H68.3438Z" fill="black"/>
<defs>
<clipPath id="clip0_1_18999">
<rect width="35" height="35" fill="white" transform="translate(0 7)"/>
</clipPath>
</defs>
</svg>
